<svg xmlns="http://www.w3.org/2000/svg" width="55.944" height="47.18" viewBox="0 0 55.944 47.18">
  <g id="グループ_529" data-name="グループ 529" transform="translate(-822.469 -3773.22)">
    <path id="label" d="M-12.48.4a8.793,8.793,0,0,1-5.68-1.86,11.307,11.307,0,0,1-3.5-5.12A21.716,21.716,0,0,1-22.84-14a21.845,21.845,0,0,1,1.18-7.46,11.171,11.171,0,0,1,3.5-5.1,8.855,8.855,0,0,1,5.68-1.84,8.773,8.773,0,0,1,5.66,1.84,11.377,11.377,0,0,1,3.5,5.1A21.514,21.514,0,0,1-2.12-14a21.388,21.388,0,0,1-1.2,7.42,11.517,11.517,0,0,1-3.5,5.12A8.712,8.712,0,0,1-12.48.4Zm0-4.04a4.66,4.66,0,0,0,3.22-1.2A7.782,7.782,0,0,0-7.18-8.36,18.723,18.723,0,0,0-6.44-14a18.88,18.88,0,0,0-.74-5.68A7.782,7.782,0,0,0-9.26-23.2a4.66,4.66,0,0,0-3.22-1.2,4.733,4.733,0,0,0-3.24,1.2,7.554,7.554,0,0,0-2.08,3.52A19.371,19.371,0,0,0-18.52-14a19.209,19.209,0,0,0,.72,5.64,7.554,7.554,0,0,0,2.08,3.52A4.733,4.733,0,0,0-12.48-3.64ZM20.6-3.72a1.819,1.819,0,0,1,1.34.54,1.819,1.819,0,0,1,.54,1.34,1.754,1.754,0,0,1-.54,1.32A1.856,1.856,0,0,1,20.6,0H6.56a1.892,1.892,0,0,1-1.4-.52,1.892,1.892,0,0,1-.52-1.4A2.13,2.13,0,0,1,5.2-3.36L14.12-13a16.792,16.792,0,0,0,2.66-3.64,7.03,7.03,0,0,0,.94-3.16,4.9,4.9,0,0,0-1.32-3.56,4.629,4.629,0,0,0-3.48-1.36,4.533,4.533,0,0,0-1.86.42A7.274,7.274,0,0,0,9.3-23.18a7.513,7.513,0,0,0-1.42,1.62,1.956,1.956,0,0,1-.8.72,2.048,2.048,0,0,1-.76.16,2.051,2.051,0,0,1-1.38-.54,1.628,1.628,0,0,1-.62-1.26,1.872,1.872,0,0,1,.36-1.08,7.958,7.958,0,0,1,.92-1.08,10.022,10.022,0,0,1,2.14-1.94,11.074,11.074,0,0,1,2.66-1.34,8.474,8.474,0,0,1,2.76-.48,9.558,9.558,0,0,1,4.58,1.04,7.36,7.36,0,0,1,3,2.92A8.894,8.894,0,0,1,21.8-20a10.9,10.9,0,0,1-1.3,4.78,22.243,22.243,0,0,1-3.62,5.14l-6.2,6.76-.44-.4Z" transform="translate(850 3820)" fill="#69aa38"/>
    <path id="label-2" data-name="label" d="M-22.455-12.6a3.234,3.234,0,0,1,1.764.513,3.771,3.771,0,0,1,1.3,1.4,4.034,4.034,0,0,1,.486,1.98,4.085,4.085,0,0,1-.486,1.989,3.9,3.9,0,0,1-1.3,1.422,3.154,3.154,0,0,1-1.764.531h-3.474l.144-.288v4.14a.927.927,0,0,1-.243.657A.832.832,0,0,1-26.667,0a.811.811,0,0,1-.621-.261.927.927,0,0,1-.243-.657V-11.682a.875.875,0,0,1,.27-.657.9.9,0,0,1,.648-.261Zm0,6.1A1.346,1.346,0,0,0-21.6-6.8a2.265,2.265,0,0,0,.63-.81,2.5,2.5,0,0,0,.243-1.1,2.381,2.381,0,0,0-.243-1.08,2.216,2.216,0,0,0-.63-.783,1.372,1.372,0,0,0-.855-.3h-3.51l.18-.27v4.878l-.162-.234Zm18.306.2A7.083,7.083,0,0,1-4.6-3.753,6.291,6.291,0,0,1-5.868-1.692,5.846,5.846,0,0,1-7.8-.315,5.97,5.97,0,0,1-10.251.18a5.925,5.925,0,0,1-2.43-.495,5.846,5.846,0,0,1-1.935-1.377,6.17,6.17,0,0,1-1.26-2.061A7.212,7.212,0,0,1-16.317-6.3a7.212,7.212,0,0,1,.441-2.547,6.17,6.17,0,0,1,1.26-2.061,5.846,5.846,0,0,1,1.935-1.377,5.925,5.925,0,0,1,2.43-.495,5.97,5.97,0,0,1,2.448.495,5.846,5.846,0,0,1,1.935,1.377A6.291,6.291,0,0,1-4.6-8.847,7.083,7.083,0,0,1-4.149-6.3Zm-1.944,0a5.279,5.279,0,0,0-.531-2.394,4.2,4.2,0,0,0-1.467-1.674,3.858,3.858,0,0,0-2.16-.612,3.826,3.826,0,0,0-2.142.612A4.143,4.143,0,0,0-13.851-8.7a5.34,5.34,0,0,0-.522,2.4,5.355,5.355,0,0,0,.522,2.394,4.129,4.129,0,0,0,1.458,1.674,3.826,3.826,0,0,0,2.142.612,3.858,3.858,0,0,0,2.16-.612A4.2,4.2,0,0,0-6.624-3.906,5.279,5.279,0,0,0-6.093-6.3ZM1.035-.918a.922.922,0,0,1-.3.657A.93.93,0,0,1,.081,0,.913.913,0,0,1-.594-.261.891.891,0,0,1-.855-.918V-11.682a.875.875,0,0,1,.27-.657.968.968,0,0,1,.7-.261.909.909,0,0,1,.639.261.862.862,0,0,1,.279.657ZM14.481-12.6a.761.761,0,0,1,.585.243.854.854,0,0,1,.225.6V-.918a.891.891,0,0,1-.261.657A.891.891,0,0,1,14.373,0a1.182,1.182,0,0,1-.387-.072.712.712,0,0,1-.315-.2l-7.4-9.594.414-.234v9.27a.813.813,0,0,1-.234.585A.789.789,0,0,1,5.859,0a.782.782,0,0,1-.6-.243.831.831,0,0,1-.225-.585V-11.682a.868.868,0,0,1,.27-.666.916.916,0,0,1,.648-.252,1.252,1.252,0,0,1,.423.081.647.647,0,0,1,.333.243l7.218,9.4-.27.252v-9.126a.835.835,0,0,1,.234-.6A.789.789,0,0,1,14.481-12.6ZM23.409,0a.937.937,0,0,1-.693-.261.891.891,0,0,1-.261-.657V-11.7h1.926V-.918a.862.862,0,0,1-.279.657A.976.976,0,0,1,23.409,0ZM19.323-10.872a.935.935,0,0,1-.648-.243.819.819,0,0,1-.27-.639.771.771,0,0,1,.27-.612.956.956,0,0,1,.648-.234h8.19a.9.9,0,0,1,.639.243.811.811,0,0,1,.261.621.8.8,0,0,1-.261.63.923.923,0,0,1-.639.234Z" transform="translate(850 3786)" fill="#69aa38"/>
  </g>
</svg>
