<?xml version="1.0" encoding="utf-8"?>
<!-- Generator: Adobe Illustrator 25.4.1, SVG Export Plug-In . SVG Version: 6.00 Build 0)  -->
<svg version="1.1" id="レイヤー_1" xmlns="http://www.w3.org/2000/svg" xmlns:xlink="http://www.w3.org/1999/xlink" x="0px"
	 y="0px" viewBox="0 0 466 174" style="enable-background:new 0 0 466 174;" xml:space="preserve">
<style type="text/css">
	.st0{enable-background:new    ;}
	.st1{fill:#69AA38;}
	.st2{fill:none;stroke:#333333;stroke-width:2;}
</style>
<g id="グループ_433" transform="translate(-209 -437)">
	<g class="st0">
		<path class="st1" d="M270.5,471.2v30.9h-7.8v-3.1h-14v19.3H241v-19.3H227v3.4h-7.4v-31.2H241v-10.7h7.8v10.7H270.5z M241,491.8
			v-13.3H227v13.3H241z M262.8,491.8v-13.3h-14v13.3H262.8z"/>
		<path class="st1" d="M315.7,478.2v11.1h17.9v28.8h-8.1v-2.7h-28v2.9h-7.7v-29.1h17.9v-11.1h-24.1V471h24.1v-10.5h8.1V471h24.2v7.2
			H315.7z M325.5,496.3h-28v12.2h28V496.3z"/>
		<path class="st1" d="M373.6,494.3c-2.2,0.6-4.4,1.4-6.7,2v22.1h-6.8v-20c-3.3,1-6.4,2-9.3,2.7l-1.8-7c3.1-0.7,6.9-1.7,11.1-2.9
			v-11.8H356c-0.7,3-1.4,5.7-2.3,7.9c-1.1-0.9-3.8-2.6-5.2-3.4c1.9-4.9,3-12.6,3.5-20l6.1,1.1c-0.2,2.5-0.6,4.9-0.9,7.4h2.9v-11.9
			h6.8v11.9h5.1v7H367v10l5.7-1.6L373.6,494.3z M407,470.1c0,0-0.1,2.5-0.1,3.3c-1.2,27.7-2.3,37.8-4.6,40.9
			c-1.4,2.1-2.8,2.8-4.8,3.2c-1.7,0.3-4.3,0.3-7,0.2c-0.2-2.1-0.9-5.1-2-7.2c2.3,0.2,4.3,0.2,5.5,0.2c0.9,0,1.5-0.2,2.3-1.2
			c1.6-2,2.7-10.4,3.7-32.7h-0.3c-3,15.6-9.4,31.7-19.4,40c-1.4-1.4-4-3.2-6-4.3c9.9-7.1,16.1-21.2,19.2-35.7h-2.9
			c-2.7,10.1-7.9,21.2-14.2,27.2c-1.4-1.4-3.7-3.1-5.6-4.2c6.1-4.8,11-14,13.7-23h-3.2c-1.8,4.3-4,8.1-6.4,11.1
			c-1.2-1.2-4.1-3.2-5.6-4.2c4.9-5.4,8.3-14.3,10.2-23.4l6.7,1.2c-0.6,2.9-1.4,5.6-2.3,8.4H407z"/>
		<path class="st1" d="M436.1,463c-1.7,4.4-3.7,8.9-6.1,13.2v42.2h-7v-31.2c-1.2,1.5-2.5,3.1-3.7,4.5c-0.7-1.9-2.7-5.8-4-7.7
			c5.5-5.6,10.7-14.4,13.8-23.2L436.1,463z M473.7,497.6h-15.9v20.8h-7.4v-20.8h-16.7v-7.2h16.7v-10.7h-7.6c-1.1,3-2.5,5.8-3.8,8
			c-1.4-1-4.6-2.7-6.4-3.5c3.3-4.8,5.9-12.7,7.3-20.3l7.1,1.5c-0.5,2.4-1.1,4.8-1.8,7.1h5.1v-11.2h7.4v11.2h13v7.2h-13v10.7h15.9
			V497.6z"/>
	</g>
	<g class="st0">
		<path class="st1" d="M504.1,498.5l-12.1,12.1l-3.4-3.4l12.1-12.1l-12.1-12.1l3.4-3.4l12.1,12.1l12.1-12.1l3.4,3.4l-12.1,12.1
			l12.1,12.1l-3.4,3.4L504.1,498.5z"/>
	</g>
	<g class="st0">
		<path class="st1" d="M231.2,550.2v21c0,1.5,0.1,4,0.2,5.4h-9c0.1-1.2,0.3-3.6,0.3-5.5v-20.9c0-1.2-0.1-3.3-0.2-4.8h8.9
			C231.2,546.8,231.2,548.2,231.2,550.2z M259.9,551.1v12.3c0,13.3-2.6,19.1-7.2,24.2c-4.1,4.5-10.5,7.5-15.1,8.9l-6.4-6.8
			c6.1-1.4,11.2-3.8,14.9-7.8c4.3-4.7,5.1-9.3,5.1-19v-11.8c0-2.5-0.1-4.5-0.4-6.2h9.4C260,546.6,259.9,548.6,259.9,551.1z"/>
		<path class="st1" d="M317.3,554.6c-2.6,7.1-6.6,16.5-11.7,22.8c-5.3,6.6-13.9,14.1-23.5,18l-7.1-7.3c9.7-3.3,18-9.4,23.6-16.1
			c6-7.2,10-17.9,11.7-26.8l9.7,2.5C318.9,549.9,318,552.6,317.3,554.6z"/>
		<path class="st1" d="M333.6,570.6c2.8-2.9,7.6-8.9,11.9-14c3.7-4.3,7.3-5,12.2-0.5c4.2,3.9,8.9,8.9,12.6,12.9
			c4.2,4.4,10.5,11.3,15.3,16.4l-6.8,7.3c-4.2-5.1-9.4-11.5-13.1-15.8c-3.6-4.3-9.1-10.3-11.3-12.6c-2-2-3.3-1.9-5.1,0.4
			c-2.4,3.1-6.8,9.2-9.3,12.6c-1.4,2-2.9,4.2-4,5.8l-7.4-7.7C330.3,573.8,331.7,572.5,333.6,570.6z M376.1,560l-5.6,2.4
			c-1.8-3.9-3.3-6.9-5.6-10.1l5.4-2.2C372,552.6,374.7,557.1,376.1,560z M384.6,556.3l-5.4,2.6c-2-3.9-3.7-6.8-6-9.9l5.3-2.4
			C380.3,549.1,383.1,553.5,384.6,556.3z"/>
		<path class="st1" d="M407.4,564.7h33.3c2.9,0,5.6-0.2,7.3-0.4v9.7c-1.5-0.1-4.6-0.3-7.3-0.3h-33.3c-3.5,0-7.7,0.1-10,0.3v-9.7
			C399.6,564.5,404.2,564.7,407.4,564.7z"/>
		<path class="st1" d="M478.7,566.8l-4.5,6.9c-3.5-2.4-10-6.6-14.1-8.8l4.5-6.9C468.8,560.3,475.6,564.5,478.7,566.8z M483.8,581
			c10.5-5.9,19.2-14.4,24.1-23.2l4.8,8.4c-5.8,8.6-14.5,16.4-24.7,22.3c-6.3,3.6-15.2,6.7-20.7,7.7l-4.7-8.2
			C469.6,586.7,477,584.7,483.8,581z M488.3,552.8l-4.6,6.9c-3.5-2.4-9.9-6.6-14-8.9l4.5-6.8C478.2,546.1,485.1,550.5,488.3,552.8z"
			/>
		<path class="st1" d="M533.2,558.3h23.4c1.5,0,3.8-0.1,4.8-0.1c-0.1,0.8-0.1,2.9-0.1,4.2v31.1c0,1,0.1,3.1,0.1,4.2h-7.8
			c0.1-0.6,0.1-1.5,0.1-2.5h-23.5c-1.7,0-4.3,0.1-5.3,0.2v-7.6c1.1,0.1,3.2,0.2,5.4,0.2h23.4v-8.2h-19.8c-2.4,0-5.3,0.1-6.8,0.1
			v-7.3c1.6,0.1,4.4,0.2,6.8,0.2h19.8v-7.5h-20.5c-2.3,0-6.2,0.1-7.7,0.2V558C527.2,558.2,530.9,558.3,533.2,558.3z"/>
		<path class="st1" d="M601.1,579.1c10.6-6.3,18.7-15.7,22.6-24.1l4.8,8.7c-4.7,8.4-13,16.9-22.9,22.9c-6.3,3.8-14.3,7.3-23,8.7
			l-5.2-8.2C587.1,585.8,595.1,582.6,601.1,579.1z M601.1,559l-6.3,6.4c-3.2-3.5-11-10.2-15.5-13.4l5.8-6.2
			C589.5,548.8,597.5,555.2,601.1,559z"/>
	</g>
	<g class="st0">
		<path class="st2" d="M267.5,469.2v30.9h-7.8v-3.1h-14v19.3H238v-19.3H224v3.4h-7.4v-31.2H238v-10.7h7.8v10.7H267.5z M238,489.8
			v-13.3H224v13.3H238z M259.8,489.8v-13.3h-14v13.3H259.8z"/>
		<path class="st2" d="M312.7,476.2v11.1h17.9v28.8h-8.1v-2.7h-28v2.9h-7.7v-29.1h17.9v-11.1h-24.1V469h24.1v-10.5h8.1V469h24.2v7.2
			H312.7z M322.5,494.3h-28v12.2h28V494.3z"/>
		<path class="st2" d="M370.6,492.3c-2.2,0.6-4.4,1.4-6.7,2v22.1h-6.8v-20c-3.3,1-6.4,2-9.3,2.7l-1.8-7c3.1-0.7,6.9-1.7,11.1-2.9
			v-11.8H353c-0.7,3-1.4,5.7-2.3,7.9c-1.1-0.9-3.8-2.6-5.2-3.4c1.9-4.9,3-12.6,3.5-20l6.1,1.1c-0.2,2.5-0.6,4.9-0.9,7.4h2.9v-11.9
			h6.8v11.9h5.1v7H364v10l5.7-1.6L370.6,492.3z M404,468.1c0,0-0.1,2.5-0.1,3.3c-1.2,27.7-2.3,37.8-4.6,40.9
			c-1.4,2.1-2.8,2.8-4.8,3.2c-1.7,0.3-4.3,0.3-7,0.2c-0.2-2.1-0.9-5.1-2-7.2c2.3,0.2,4.3,0.2,5.5,0.2c0.9,0,1.5-0.2,2.3-1.2
			c1.6-2,2.7-10.4,3.7-32.7h-0.3c-3,15.6-9.4,31.7-19.4,40c-1.4-1.4-4-3.2-6-4.3c9.9-7.1,16.1-21.2,19.2-35.7h-2.9
			c-2.7,10.1-7.9,21.2-14.2,27.2c-1.4-1.4-3.7-3.1-5.6-4.2c6.1-4.8,11-14,13.7-23h-3.2c-1.8,4.3-4,8.1-6.4,11.1
			c-1.2-1.2-4.1-3.2-5.6-4.2c4.9-5.4,8.3-14.3,10.2-23.4l6.7,1.2c-0.6,2.9-1.4,5.6-2.3,8.4H404z"/>
		<path class="st2" d="M433.1,461c-1.7,4.4-3.7,8.9-6.1,13.2v42.2h-7v-31.2c-1.2,1.5-2.5,3.1-3.7,4.5c-0.7-1.9-2.7-5.8-4-7.7
			c5.5-5.6,10.7-14.4,13.8-23.2L433.1,461z M470.7,495.6h-15.9v20.8h-7.4v-20.8h-16.7v-7.2h16.7v-10.7h-7.6c-1.1,3-2.5,5.8-3.8,8
			c-1.4-1-4.6-2.7-6.4-3.5c3.3-4.8,5.9-12.7,7.3-20.3l7.1,1.5c-0.5,2.4-1.1,4.8-1.8,7.1h5.1v-11.2h7.4v11.2h13v7.2h-13v10.7h15.9
			V495.6z"/>
	</g>
	<g class="st0">
		<path class="st2" d="M501.1,496.5l-12.1,12.1l-3.4-3.4l12.1-12.1l-12.1-12.1l3.4-3.4l12.1,12.1l12.1-12.1l3.4,3.4l-12.1,12.1
			l12.1,12.1l-3.4,3.4L501.1,496.5z"/>
	</g>
	<g class="st0">
		<path class="st2" d="M228.2,548.2v21c0,1.5,0.1,4,0.2,5.4h-9c0.1-1.2,0.3-3.6,0.3-5.5v-20.9c0-1.2-0.1-3.3-0.2-4.8h8.9
			C228.2,544.8,228.2,546.2,228.2,548.2z M256.9,549.1v12.3c0,13.3-2.6,19.1-7.2,24.2c-4.1,4.5-10.5,7.5-15.1,8.9l-6.4-6.8
			c6.1-1.4,11.2-3.8,14.9-7.8c4.3-4.7,5.1-9.3,5.1-19v-11.8c0-2.5-0.1-4.5-0.4-6.2h9.4C257,544.6,256.9,546.6,256.9,549.1z"/>
		<path class="st2" d="M314.3,552.6c-2.6,7.1-6.6,16.5-11.7,22.8c-5.3,6.6-13.9,14.1-23.5,18l-7.1-7.3c9.7-3.3,18-9.4,23.6-16.1
			c6-7.2,10-17.9,11.7-26.8l9.7,2.5C315.9,547.9,315,550.6,314.3,552.6z"/>
		<path class="st2" d="M330.6,568.6c2.8-2.9,7.6-8.9,11.9-14c3.7-4.3,7.3-5,12.2-0.5c4.2,3.9,8.9,8.9,12.6,12.9
			c4.2,4.4,10.5,11.3,15.3,16.4l-6.8,7.3c-4.2-5.1-9.4-11.5-13.1-15.8c-3.6-4.3-9.1-10.3-11.3-12.6c-2-2-3.3-1.9-5.1,0.4
			c-2.4,3.1-6.8,9.2-9.3,12.6c-1.4,2-2.9,4.2-4,5.8l-7.4-7.7C327.3,571.8,328.7,570.5,330.6,568.6z M373.1,558l-5.6,2.4
			c-1.8-3.9-3.3-6.9-5.6-10.1l5.4-2.2C369,550.6,371.7,555.1,373.1,558z M381.6,554.3l-5.4,2.6c-2-3.9-3.7-6.8-6-9.9l5.3-2.4
			C377.3,547.1,380.1,551.5,381.6,554.3z"/>
		<path class="st2" d="M404.4,562.7h33.3c2.9,0,5.6-0.2,7.3-0.4v9.7c-1.5-0.1-4.6-0.3-7.3-0.3h-33.3c-3.5,0-7.7,0.1-10,0.3v-9.7
			C396.6,562.5,401.2,562.7,404.4,562.7z"/>
		<path class="st2" d="M475.7,564.8l-4.5,6.9c-3.5-2.4-10-6.6-14.1-8.8l4.5-6.9C465.8,558.3,472.6,562.5,475.7,564.8z M480.8,579
			c10.5-5.9,19.2-14.4,24.1-23.2l4.8,8.4c-5.8,8.6-14.5,16.4-24.7,22.3c-6.3,3.6-15.2,6.7-20.7,7.7l-4.7-8.2
			C466.6,584.7,474,582.7,480.8,579z M485.3,550.8l-4.6,6.9c-3.5-2.4-9.9-6.6-14-8.9l4.5-6.8C475.2,544.1,482.1,548.5,485.3,550.8z"
			/>
		<path class="st2" d="M530.2,556.3h23.4c1.5,0,3.8-0.1,4.8-0.1c-0.1,0.8-0.1,2.9-0.1,4.2v31.1c0,1,0.1,3.1,0.1,4.2h-7.8
			c0.1-0.6,0.1-1.5,0.1-2.5h-23.5c-1.7,0-4.3,0.1-5.3,0.2v-7.6c1.1,0.1,3.2,0.2,5.4,0.2h23.4v-8.2h-19.8c-2.4,0-5.3,0.1-6.8,0.1
			v-7.3c1.6,0.1,4.4,0.2,6.8,0.2h19.8v-7.5h-20.5c-2.3,0-6.2,0.1-7.7,0.2V556C524.2,556.2,527.9,556.3,530.2,556.3z"/>
		<path class="st2" d="M598.1,577.1c10.6-6.3,18.7-15.7,22.6-24.1l4.8,8.7c-4.7,8.4-13,16.9-22.9,22.9c-6.3,3.8-14.3,7.3-23,8.7
			l-5.2-8.2C584.1,583.8,592.1,580.6,598.1,577.1z M598.1,557l-6.3,6.4c-3.2-3.5-11-10.2-15.5-13.4l5.8-6.2
			C586.5,546.8,594.5,553.2,598.1,557z"/>
	</g>
</g>
</svg>
