<?xml version="1.0" encoding="utf-8"?>
<!-- Generator: Adobe Illustrator 25.4.1, SVG Export Plug-In . SVG Version: 6.00 Build 0)  -->
<svg version="1.1" id="レイヤー_1" xmlns="http://www.w3.org/2000/svg" xmlns:xlink="http://www.w3.org/1999/xlink" x="0px"
	 y="0px" viewBox="0 0 401 157.2" style="enable-background:new 0 0 401 157.2;" xml:space="preserve">
<style type="text/css">
	.st0{enable-background:new    ;}
	.st1{fill:#69AA38;}
	.st2{fill:none;stroke:#333333;stroke-width:2;}
</style>
<g id="グループ_442" transform="translate(2 2)">
	<g class="st0">
		<path class="st1" d="M23.3,24.1c-0.1,0.5-0.2,1.1-0.4,1.8c2.6-0.4,5.3-0.9,7.8-1.5v5.9c-2.8,0.7-6,1.2-9.2,1.6
			c-0.4,2-0.9,4.1-1.4,6c-1.7,6.6-4.8,16.2-7.5,21.8l-6.5-2.2c2.8-4.7,6.4-14.6,8.1-21.1c0.3-1.3,0.7-2.6,1-3.9
			c-1.1,0-2.1,0.1-3.1,0.1c-2.3,0-4-0.1-5.7-0.2l-0.1-5.9c2.4,0.3,4,0.4,5.9,0.4c1.4,0,2.8,0,4.2-0.1c0.2-1,0.3-1.9,0.4-2.7
			c0.2-1.7,0.3-3.7,0.1-4.7l7.2,0.6C23.9,21,23.4,23.1,23.3,24.1z M28.9,49.7c0,2.1,1.4,3.6,6.4,3.6c3.1,0,6.4-0.4,9.8-1l-0.2,6
			C42.2,58.6,39,59,35.3,59c-7.9,0-12.2-2.7-12.2-7.5c0-2.2,0.5-4.4,0.8-6.3l5.6,0.6C29.2,47.1,28.9,48.6,28.9,49.7z M36,33.4
			c2.7,0,5.5,0.1,8.3,0.4l-0.1,5.6c-2.3-0.3-5.2-0.6-8.1-0.6c-3.2,0-6.1,0.1-9.1,0.5v-5.5C29.6,33.7,33,33.4,36,33.4z"/>
		<path class="st1" d="M70.1,32.8c3.9-2.3,7.9-4.3,10.2-5.5c1.8-1,3.1-1.8,4.4-2.9l3.2,5.5c-1.4,0.8-2.9,1.6-4.7,2.5
			c-2.9,1.5-8.8,4.2-13.1,7c-3.9,2.6-6.5,5.3-6.5,8.6c0,3.4,3.2,5.2,9.8,5.2c4.8,0,11.2-0.7,15.4-1.7l-0.1,6.8
			c-4,0.7-9,1.2-15.1,1.2c-9.4,0-16.4-2.6-16.4-10.7c0-5.2,3.3-9.1,7.8-12.4c-2.2-4-4.4-9-6.5-14l5.9-2.4
			C66,24.7,68.2,29.2,70.1,32.8z"/>
		<path class="st1" d="M123.4,36.5c-2.2,1.8-6.5,5.9-7.7,7.1c0.4,0,1.3,0.1,1.8,0.3c1.4,0.4,2.2,1.5,2.8,3.2
			c0.4,1.3,0.9,3.1,1.4,4.3c0.4,1.5,1.5,2.2,3.3,2.2c3.6,0,6.9-0.4,9.2-0.8l-0.4,6.2c-1.9,0.4-6.8,0.7-9.2,0.7c-4.5,0-6.9-1-8-4
			c-0.5-1.4-1-3.6-1.4-4.8c-0.5-1.6-1.6-2.3-2.5-2.3c-1,0-2,0.8-3.1,1.9c-1.6,1.6-5.1,5.5-8.4,9.6l-5.5-3.9c0.8-0.7,2-1.7,3.2-2.9
			c2.4-2.4,12-12,16.3-16.5c-3.3,0.1-8.9,0.6-11.6,0.8c-1.6,0.1-3.1,0.4-4,0.5L99,31.5c1.1,0.1,2.8,0.2,4.5,0.1
			c2.2,0,12.9-0.5,16.8-1c0.9-0.1,2.2-0.3,2.7-0.5l3.4,3.9C125.2,34.9,124.2,35.7,123.4,36.5z M124.8,21.4l-0.8,5.5
			c-4.9-0.4-13.7-1.4-19.3-2.3l0.9-5.5C110.9,20.1,119.9,21.1,124.8,21.4z"/>
	</g>
	<g class="st0">
		<path class="st1" d="M22.4,99.3c-2.1,9.2-5.5,20.8-10.6,27.6c-1.9-1.2-5.3-3-7.2-3.8c5-6.3,8.1-17.1,9.4-25.2L22.4,99.3z
			 M38.2,83.8v47.8c0,4.5-1.1,6.6-3.8,7.8c-2.9,1.2-7.1,1.4-13.1,1.4c-0.4-2.2-1.8-5.6-2.9-7.7c4,0.2,8.6,0.2,10,0.1
			c1.4,0,1.9-0.4,1.9-1.6V83.8H38.2z M52.2,97.2c5,8.8,10.1,20,11.7,27.8l-8.1,3.2c-1.2-7.5-6-19.2-10.8-28.2L52.2,97.2z"/>
	</g>
	<g class="st0">
		<path class="st1" d="M95.9,85.7l8.4-1c0.6,3.3,1.5,6.6,2.6,9.7c4.5-0.7,8.8-1.7,12.7-2.9l1,7.8c-3.2,0.9-7.1,1.7-11,2.2
			c1.8,4,4,7.9,5.5,10.1c1.1,1.5,2.2,2.9,3.3,4.2l-3.8,5.6c-3.5-0.7-11.3-1.5-16.5-1.9l0.6-6.6c3,0.2,7.1,0.6,9.1,0.7
			c-1.9-3-4.1-7.1-5.8-11.2c-7.4,0.6-15.9,0.6-26.5-0.2l-0.1-7.9c9.3,1.1,17.2,1.3,23.8,0.9c-0.5-1.4-0.9-2.7-1.2-3.8
			C97.4,90,96.7,87.8,95.9,85.7z M84.7,123.8c0,5.2,4.6,7.4,13.1,7.4c6.8,0,12.2-0.6,16.6-1.5l-0.4,7.8c-3.5,0.7-9.1,1.5-16.7,1.5
			c-12.6-0.1-20.6-5-20.6-13.9c0-3.8,1.2-7.3,3.3-11.5l7.7,1.8C85.7,118.4,84.7,121.1,84.7,123.8z"/>
		<path class="st1" d="M155.6,94c3-0.6,6-1.2,8.4-2l0.2,7.2c-2.9,0.7-6.7,1.5-10.8,2.2c-3,8.7-8.2,19.5-13.3,26.5l-7.5-3.8
			c4.9-6.1,9.9-15.2,12.6-21.9c-1.1,0.1-2.2,0.1-3.2,0.1c-2.5,0-5.1-0.1-7.7-0.2l-0.6-7.2c2.7,0.3,6,0.4,8.2,0.4
			c1.9,0,3.7-0.1,5.6-0.2c0.9-3.4,1.6-7.1,1.7-10.4l8.6,0.9C157.4,87.5,156.6,90.7,155.6,94z M172.4,112.7c0.1,1.8,0.2,4.8,0.4,7.9
			c5.3,2,9.7,5.1,12.8,7.9l-4.2,6.6c-2.2-2-5-4.6-8.4-6.6c0,0.2,0,0.4,0,0.6c0,5.8-3.2,10.2-12,10.2c-7.7,0-13.8-3.4-13.8-10.2
			c0-6.1,5.1-10.7,13.7-10.7c1.5,0,2.9,0.1,4.3,0.2c-0.2-4.6-0.6-10.1-0.7-13.9h7.7C172.2,107.4,172.3,110,172.4,112.7z M160,132.3
			c4.3,0,5.6-2.4,5.6-5.8c0-0.4,0-0.7,0-1.2c-1.6-0.4-3.3-0.6-5-0.6c-3.6,0-5.9,1.6-5.9,3.8C154.7,130.7,156.6,132.3,160,132.3z
			 M168.2,99.3l4-6.1c4.5,1.9,12.2,6.1,15.3,8.4l-4.4,6.5C179.4,105.2,172.4,101.2,168.2,99.3z"/>
		<path class="st1" d="M207.2,122.9c0,4,3.8,6.8,12.7,6.8c8.4,0,16.3-0.9,21.8-2.5l0.1,8.7c-5.4,1.3-12.8,2.1-21.5,2.1
			c-14.2,0-21.3-4.8-21.3-13.3c0-3.6,0.7-6.6,1.2-8.9l8.1,0.7C207.6,118.9,207.2,120.8,207.2,122.9z M219.9,91.1
			c6.1,0,13.2-0.4,18-0.9v8.2c-4.3,0.4-12,0.7-17.9,0.7c-6.5,0-11.9-0.2-16.9-0.7v-8.2C207.6,90.9,213.4,91.1,219.9,91.1z"/>
		<path class="st1" d="M275.3,103.2c5.1-3,10.5-5.6,13.4-7.3c2.4-1.4,4.2-2.4,5.8-3.8l4.3,7.2c-1.9,1.1-3.8,2.2-6.1,3.3
			c-3.8,1.9-11.7,5.5-17.3,9.2c-5.1,3.4-8.6,6.9-8.6,11.3c0,4.5,4.3,6.8,12.9,6.8c6.4,0,14.8-0.9,20.3-2.3l-0.1,8.9
			c-5.3,0.9-11.8,1.5-19.9,1.5c-12.3,0-21.7-3.4-21.7-14.1c0-6.8,4.3-12,10.3-16.4c-2.9-5.3-5.8-11.9-8.6-18.5l7.8-3.2
			C269.9,92.5,272.8,98.4,275.3,103.2z"/>
		<path class="st1" d="M334.6,91.3c-0.2,1.1-0.4,2.7-0.7,4.8c4.5-0.1,8.4-0.4,11.3-0.9l-0.2,7.4c-3.7,0.4-7.1,0.6-12.1,0.6
			c-0.4,2.7-0.7,5.6-1.1,8.4c0.1,0,0.3,0,0.4,0c3.8,0,8.4-0.2,12.5-0.7l-0.2,7.4c-3.5,0.3-7.1,0.6-11,0.6c-0.8,0-1.7,0-2.5,0
			c-0.1,1.9-0.2,3.4-0.2,4.5c0,5.1,3.2,7.9,9.2,7.9c8.7,0,13.4-4,13.4-9.1c0-4.2-2.3-8.2-6.4-12l8.7-1.9c4.1,5.2,6,9.6,6,14.9
			c0,9.4-8.4,16.1-22,16.1c-9.7,0-16.6-4.2-16.6-14.6c0-1.5,0.2-3.7,0.4-6.3c-4.5-0.4-8.6-1.1-11.9-2l0.4-7.5c4,1.4,8.2,2,12.2,2.5
			c0.4-2.8,0.7-5.7,1.1-8.5c-4.3-0.4-8.7-1.2-12.3-2.2l0.4-7.1c3.6,1.2,8.2,2,12.8,2.4c0.2-1.9,0.4-3.6,0.5-5
			c0.2-2.9,0.2-4.2,0.1-5.5l8.7,0.5C335.1,88,334.9,89.7,334.6,91.3z"/>
	</g>
	<g class="st0">
		<path class="st2" d="M20.3,21.9c-0.1,0.5-0.2,1.1-0.4,1.8c2.6-0.4,5.3-0.9,7.8-1.5v5.9c-2.8,0.7-6,1.2-9.2,1.6
			c-0.4,2-0.9,4.1-1.4,6c-1.7,6.6-4.8,16.2-7.5,21.8l-6.5-2.2C6,50.5,9.5,40.6,11.3,34c0.3-1.3,0.7-2.6,1-3.9
			c-1.1,0-2.1,0.1-3.1,0.1c-2.3,0-4-0.1-5.7-0.2l-0.1-5.9c2.4,0.3,4,0.4,5.9,0.4c1.4,0,2.8,0,4.2-0.1c0.2-1,0.3-1.9,0.4-2.7
			c0.2-1.7,0.3-3.7,0.1-4.7l7.2,0.6C20.9,18.8,20.4,20.9,20.3,21.9z M25.9,47.4c0,2.1,1.4,3.6,6.4,3.6c3.1,0,6.4-0.4,9.8-1l-0.2,6
			c-2.6,0.3-5.8,0.7-9.6,0.7c-7.9,0-12.2-2.7-12.2-7.5c0-2.2,0.5-4.4,0.8-6.3l5.6,0.6C26.2,44.8,25.9,46.4,25.9,47.4z M33,31.2
			c2.7,0,5.5,0.1,8.3,0.4l-0.1,5.6c-2.3-0.3-5.2-0.6-8.1-0.6c-3.2,0-6.1,0.1-9.1,0.5v-5.5C26.6,31.5,30,31.2,33,31.2z"/>
		<path class="st2" d="M67.1,30.6c3.9-2.3,7.9-4.3,10.2-5.5c1.8-1,3.1-1.8,4.4-2.9l3.2,5.5c-1.4,0.8-2.9,1.6-4.7,2.5
			c-2.9,1.5-8.8,4.2-13.1,7c-3.9,2.6-6.5,5.3-6.5,8.6c0,3.4,3.2,5.2,9.8,5.2c4.8,0,11.2-0.7,15.4-1.7l-0.1,6.8
			c-4,0.7-9,1.2-15.1,1.2c-9.4,0-16.4-2.6-16.4-10.7c0-5.2,3.3-9.1,7.8-12.4c-2.2-4-4.4-9-6.5-14l5.9-2.4
			C63,22.4,65.2,26.9,67.1,30.6z"/>
		<path class="st2" d="M120.4,34.2c-2.2,1.8-6.5,5.9-7.7,7.1c0.4,0,1.3,0.1,1.8,0.3c1.4,0.4,2.2,1.5,2.8,3.2
			c0.4,1.3,0.9,3.1,1.4,4.3c0.4,1.5,1.5,2.2,3.3,2.2c3.6,0,6.9-0.4,9.2-0.8l-0.4,6.2c-1.9,0.4-6.8,0.7-9.2,0.7c-4.5,0-6.9-1-8-4
			c-0.5-1.4-1-3.6-1.4-4.8c-0.5-1.6-1.6-2.3-2.5-2.3c-1,0-2,0.8-3.1,1.9c-1.6,1.6-5.1,5.5-8.4,9.6l-5.5-3.9c0.8-0.7,2-1.7,3.2-2.9
			c2.4-2.4,12-12,16.3-16.5c-3.3,0.1-8.9,0.6-11.6,0.8c-1.6,0.1-3.1,0.4-4,0.5L96,29.3c1.1,0.1,2.8,0.2,4.5,0.1
			c2.2,0,12.9-0.5,16.8-1c0.9-0.1,2.2-0.3,2.7-0.5l3.4,3.9C122.2,32.7,121.2,33.5,120.4,34.2z M121.8,19.2l-0.8,5.5
			c-4.9-0.4-13.7-1.4-19.3-2.3l0.9-5.5C107.9,17.9,116.9,18.9,121.8,19.2z"/>
	</g>
	<g class="st0">
		<path class="st2" d="M19.4,97.1c-2.1,9.2-5.5,20.8-10.6,27.6c-1.9-1.2-5.3-3-7.2-3.8c5-6.3,8.1-17.1,9.4-25.2L19.4,97.1z
			 M35.2,81.6v47.8c0,4.5-1.1,6.6-3.8,7.8c-2.9,1.2-7.1,1.4-13.1,1.4c-0.4-2.2-1.8-5.6-2.9-7.7c4,0.2,8.6,0.2,10,0.1
			c1.4,0,1.9-0.4,1.9-1.6V81.6H35.2z M49.2,95c5,8.8,10.1,20,11.7,27.8l-8.1,3.2c-1.2-7.5-6-19.2-10.8-28.2L49.2,95z"/>
	</g>
	<g class="st0">
		<path class="st2" d="M92.9,83.5l8.4-1c0.6,3.3,1.5,6.6,2.6,9.7c4.5-0.7,8.8-1.7,12.7-2.9l1,7.8c-3.2,0.9-7.1,1.7-11,2.2
			c1.8,4,4,7.9,5.5,10.1c1.1,1.5,2.2,2.9,3.3,4.2l-3.8,5.6c-3.5-0.7-11.3-1.5-16.5-1.9l0.6-6.6c3,0.2,7.1,0.6,9.1,0.7
			c-1.9-3-4.1-7.1-5.8-11.2c-7.4,0.6-15.9,0.6-26.5-0.2l-0.1-7.9c9.3,1.1,17.2,1.3,23.8,0.9c-0.5-1.4-0.9-2.7-1.2-3.8
			C94.4,87.8,93.7,85.5,92.9,83.5z M81.7,121.6c0,5.2,4.6,7.4,13.1,7.4c6.8,0,12.2-0.6,16.6-1.5l-0.4,7.8c-3.5,0.7-9.1,1.5-16.7,1.5
			c-12.6-0.1-20.6-5-20.6-13.9c0-3.8,1.2-7.3,3.3-11.5l7.7,1.8C82.7,116.2,81.7,118.9,81.7,121.6z"/>
		<path class="st2" d="M152.6,91.8c3-0.6,6-1.2,8.4-2l0.2,7.2c-2.9,0.7-6.7,1.5-10.8,2.2c-3,8.7-8.2,19.5-13.3,26.5l-7.5-3.8
			c4.9-6.1,9.9-15.2,12.6-21.9c-1.1,0.1-2.2,0.1-3.2,0.1c-2.5,0-5.1-0.1-7.7-0.2l-0.6-7.2c2.7,0.3,6,0.4,8.2,0.4
			c1.9,0,3.7-0.1,5.6-0.2c0.9-3.4,1.6-7.1,1.7-10.4l8.6,0.9C154.4,85.3,153.6,88.4,152.6,91.8z M169.4,110.5
			c0.1,1.8,0.2,4.8,0.4,7.9c5.3,2,9.7,5.1,12.8,7.9l-4.2,6.6c-2.2-2-5-4.6-8.4-6.6c0,0.2,0,0.4,0,0.6c0,5.8-3.2,10.2-12,10.2
			c-7.7,0-13.8-3.4-13.8-10.2c0-6.1,5.1-10.7,13.7-10.7c1.5,0,2.9,0.1,4.3,0.2c-0.2-4.6-0.6-10.1-0.7-13.9h7.7
			C169.2,105.2,169.3,107.8,169.4,110.5z M157,130c4.3,0,5.6-2.4,5.6-5.8c0-0.4,0-0.7,0-1.2c-1.6-0.4-3.3-0.6-5-0.6
			c-3.6,0-5.9,1.6-5.9,3.8C151.7,128.5,153.6,130,157,130z M165.2,97.1l4-6.1c4.5,1.9,12.2,6.1,15.3,8.4l-4.4,6.5
			C176.4,103,169.4,99,165.2,97.1z"/>
		<path class="st2" d="M204.2,120.7c0,4,3.8,6.8,12.7,6.8c8.4,0,16.3-0.9,21.8-2.5l0.1,8.7c-5.4,1.3-12.8,2.1-21.5,2.1
			c-14.2,0-21.3-4.8-21.3-13.3c0-3.6,0.7-6.6,1.2-8.9l8.1,0.7C204.6,116.6,204.2,118.6,204.2,120.7z M216.9,88.9
			c6.1,0,13.2-0.4,18-0.9v8.2c-4.3,0.4-12,0.7-17.9,0.7c-6.5,0-11.9-0.2-16.9-0.7v-8.2C204.6,88.6,210.4,88.9,216.9,88.9z"/>
		<path class="st2" d="M272.3,101c5.1-3,10.5-5.6,13.4-7.3c2.4-1.4,4.2-2.4,5.8-3.8l4.3,7.2c-1.9,1.1-3.8,2.2-6.1,3.3
			c-3.8,1.9-11.7,5.5-17.3,9.2c-5.1,3.4-8.6,6.9-8.6,11.3c0,4.5,4.3,6.8,12.9,6.8c6.4,0,14.8-0.9,20.3-2.3l-0.1,8.9
			c-5.3,0.9-11.8,1.5-19.9,1.5c-12.3,0-21.7-3.4-21.7-14.1c0-6.8,4.3-12,10.3-16.4c-2.9-5.3-5.8-11.9-8.6-18.5l7.8-3.2
			C266.9,90.2,269.8,96.2,272.3,101z"/>
		<path class="st2" d="M331.6,89.1c-0.2,1.1-0.4,2.7-0.7,4.8c4.5-0.1,8.4-0.4,11.3-0.9l-0.2,7.4c-3.7,0.4-7.1,0.6-12.1,0.6
			c-0.4,2.7-0.7,5.6-1.1,8.4c0.1,0,0.3,0,0.4,0c3.8,0,8.4-0.2,12.5-0.7l-0.2,7.4c-3.5,0.3-7.1,0.6-11,0.6c-0.8,0-1.7,0-2.5,0
			c-0.1,1.9-0.2,3.4-0.2,4.5c0,5.1,3.2,7.9,9.2,7.9c8.7,0,13.4-4,13.4-9.1c0-4.2-2.3-8.2-6.4-12l8.7-1.9c4.1,5.2,6,9.6,6,14.9
			c0,9.4-8.4,16.1-22,16.1c-9.7,0-16.6-4.2-16.6-14.6c0-1.5,0.2-3.7,0.4-6.3c-4.5-0.4-8.6-1.1-11.9-2l0.4-7.5c4,1.4,8.2,2,12.2,2.5
			c0.4-2.8,0.7-5.7,1.1-8.5c-4.3-0.4-8.7-1.2-12.3-2.2l0.4-7.1c3.6,1.2,8.2,2,12.8,2.4c0.2-1.9,0.4-3.6,0.5-5
			c0.2-2.9,0.2-4.2,0.1-5.5l8.7,0.5C332.1,85.8,331.9,87.4,331.6,89.1z"/>
	</g>
</g>
</svg>
