<?xml version="1.0" encoding="utf-8"?>
<!-- Generator: Adobe Illustrator 25.4.1, SVG Export Plug-In . SVG Version: 6.00 Build 0)  -->
<svg version="1.1" id="レイヤー_1" xmlns="http://www.w3.org/2000/svg" xmlns:xlink="http://www.w3.org/1999/xlink" x="0px"
	 y="0px" viewBox="0 0 379.3 172.2" style="enable-background:new 0 0 379.3 172.2;" xml:space="preserve">
<style type="text/css">
	.st0{enable-background:new    ;}
	.st1{fill:#69AA38;}
	.st2{fill:none;stroke:#333333;stroke-width:2;stroke-linejoin:round;}
</style>
<g id="グループ_422" transform="translate(2 2)">
	<g class="st0">
		<path class="st1" d="M61.4,69.7v7.1H6.5v-7.1h23.5V57.4H13.6v-7h16.5V39.7H17.5c-1.8,3.4-3.7,6.5-5.7,8.8
			c-1.5-1.2-4.7-3.4-6.5-4.3C10,39.1,14,30.6,16.1,22.3l7.5,1.6c-0.9,2.9-1.8,5.8-2.9,8.6h9.4v-11h7.6v11h20.6v7.1H37.7v10.7H56v7
			H37.7v12.3H61.4z"/>
		<path class="st1" d="M81,49.7c-2.1-2-6.6-4.6-10.2-6.2l3.9-5.4c3.6,1.3,8.2,3.6,10.6,5.6L81,49.7z M86.5,57.9
			c-2.3,6.6-5.2,13.8-8.1,19.9l-6.7-4c2.5-4.8,6.2-12.7,8.7-19.9L86.5,57.9z M84.3,33.6c-2.2-2.1-6.8-4.8-10.4-6.4l4.1-5.5
			c3.5,1.5,8.2,3.9,10.6,5.9L84.3,33.6z M96.7,40.9c0,10.9-0.9,27.2-7.3,37.8c-1.3-1.1-4.5-2.7-6.2-3.4c6.2-9.9,6.7-24.3,6.7-34.4
			V24.5h37.2v6.3H96.7V40.9z M127.8,70.5v6H94.4v-6h14.1v-5.9H98v-5.9h10.4v-4.5h6.7v4.5h10.9v5.9h-10.9v5.9H127.8z M108.5,47.3
			v-5.2h-8.8v-5.8h8.8V32h6.7v4.3h9.5v5.8h-9.5v5.2h11.7v5.9H97.2v-5.9H108.5z"/>
	</g>
	<g class="st0">
		<path class="st1" d="M159.5,77.2l-3.5-5.5c1.7-0.2,3-0.5,4.3-0.7c5.9-1.4,10.5-5.6,10.5-12.3c0-6.3-3.5-11.1-9.7-12.1
			c-0.6,3.9-1.4,8.1-2.8,12.5c-2.8,9.3-6.7,15-11.7,15c-5.1,0-9.3-5.6-9.3-13.4c0-10.6,9.2-19.7,21.1-19.7
			c11.4,0,18.6,7.9,18.6,17.9C177.1,68.5,171.1,75.4,159.5,77.2z M146.9,66.9c1.9,0,3.7-2.9,5.6-9.1c1.1-3.4,1.9-7.3,2.4-11.1
			c-7.6,1.6-11.7,8.3-11.7,13.3C143.2,64.6,145.1,66.9,146.9,66.9z"/>
	</g>
	<g class="st0">
		<path class="st1" d="M28.7,108c-0.1,1.3-0.1,2.8-0.2,4.3c4-0.5,8.1-1.3,11.2-2.2l0.2,7.6c-3.5,0.8-7.7,1.4-11.7,1.9
			c-0.1,1.8-0.1,3.7-0.1,5.5c0,0.7,0,1.5,0,2.3c4.1-1,8.4-1.6,11.7-1.6c9.4,0,16.8,4.9,16.8,13.3c0,7.2-3.8,12.6-13.5,15.1
			c-2.8,0.6-5.5,0.8-8,1l-2.8-7.9c2.7,0,5.4-0.1,7.5-0.4c4.9-0.9,8.8-3.4,8.8-7.8c0-4.1-3.7-6.6-9-6.6c-3.8,0-7.7,0.6-11.5,1.7
			c0.1,4.8,0.2,9.6,0.2,11.7c0,7.6-2.7,9.6-6.7,9.6c-5.9,0-14.3-5.1-14.3-11.6c0-5.3,6.1-10.9,13.6-14.1c-0.1-1.5-0.1-2.9-0.1-4.3
			c0-1.7,0-3.4,0-5.1c-1.2,0.1-2.3,0.1-3.2,0.1c-4.1,0-6.5-0.1-8.5-0.3l-0.1-7.4c3.6,0.4,6.2,0.5,8.4,0.5c1.1,0,2.3-0.1,3.5-0.1
			c0.1-2.1,0.1-3.9,0.1-4.9c0-1.3-0.2-4.3-0.4-5.4h8.4C29.1,103.8,28.8,106.4,28.7,108z M19.5,147c1.1,0,2-0.5,2-2.6
			c0-1.5-0.1-4.3-0.2-7.6c-3.7,2-6.2,4.5-6.2,6.6C15.1,145.3,17.9,147,19.5,147z M61.6,117.9l-3.7,6.2c-2.9-2.5-10.9-7.1-14.7-8.9
			l3.4-5.9C51.3,111.5,58.4,115.6,61.6,117.9z"/>
		<path class="st1" d="M76.8,117c4.7-1.5,17.1-5.9,26-5.9c11,0,19.7,6.3,19.7,17.6c0,13.8-13.2,22.7-34.7,23.8l-3.5-8.1
			c16.5-0.4,29.5-5.2,29.5-15.8c0-5.7-4-10.1-11.3-10.1c-9,0-23.4,6.1-29.8,8.8l-3.5-8.5C71.5,118.4,74.6,117.6,76.8,117z"/>
		<path class="st1" d="M158.6,121.7c-0.3-0.7-0.5-1.5-0.8-2.1c-0.5-1.4-0.9-2.6-1.2-3.6c-5.7,0.3-12.9,0.2-20.6-0.5l-0.4-7
			c7.3,0.9,13.5,1.1,19.1,0.9c-0.6-2-1.2-3.9-2-6l8.2-0.9c0.3,2.2,0.7,4.3,1.1,6.4c4.2-0.5,8.1-1.4,12-2.6l1,7
			c-3.4,0.9-7.2,1.7-11.2,2.3c0.3,1,0.6,2,0.9,2.9c0.3,0.9,0.7,1.8,1,2.7c5-0.6,8.7-1.6,11.7-2.4l1.2,7.2c-2.8,0.7-6.1,1.4-9.8,1.9
			c1,2,2.1,3.8,3.2,5.4c0.8,1.2,1.6,2.1,2.7,3.1l-3.7,5.6c-3.4-0.7-10-1.5-14.5-2l0.6-5.8c2.6,0.2,5.9,0.5,7.7,0.7
			c-1.3-2.1-2.4-4.3-3.4-6.3c-7.5,0.5-17.3,0.5-26.5-0.1l-0.4-7.2C143.5,122.1,151.8,122.2,158.6,121.7z M143.5,142.2
			c0,4.5,4.3,6.3,12.3,6.3c5.8,0,11-0.5,15.3-1.3l-0.4,7.7c-4.3,0.7-9.8,1.2-14.8,1.2c-12.2,0-19.8-3.6-19.9-12.3
			c-0.1-3.9,1.2-6.9,2.6-9.8l7.6,1.5C144.7,137.4,143.5,139.5,143.5,142.2z"/>
	</g>
	<g class="st0">
		<path class="st1" d="M233.8,100.6c6.5,9.3,16.4,17.1,26.1,21c-1.8,1.9-3.4,4.3-4.7,6.5c-3.1-1.6-6.3-3.6-9.3-5.8v4.2h-30.4v-4.3
			c-3,2.2-6.2,4.2-9.5,6c-1-1.8-3-4.4-4.6-5.9c10.5-5.1,20.3-14.3,24.8-21.7H233.8z M211.4,132.6h38.7v25h-7.4v-2.3h-24.1v2.3h-7.1
			V132.6z M242.9,120.1c-5.1-4-9.6-8.4-12.5-12.4c-2.9,4.1-7.1,8.4-12.1,12.4H242.9z M218.6,139v9.9h24.1V139H218.6z"/>
	</g>
	<g class="st0">
		<path class="st1" d="M280.4,116.1c-0.1,4,0,8.5,0.4,12.9c0.9,8.8,2.7,14.8,6.5,14.8c2.9,0,5.3-7.1,6.5-12l6.1,7.4
			c-4,10.6-7.9,14.3-12.8,14.3c-6.7,0-12.5-6-14.2-22.4c-0.6-5.6-0.7-12.8-0.7-16.5c0-1.7-0.1-4.3-0.5-6.2l9.4,0.1
			C280.7,110.8,280.4,114.3,280.4,116.1z M322.8,141.6l-8,3.1c-1-9.8-4.2-24.6-10.9-32.2l7.7-2.5C317.5,117,322.1,132.3,322.8,141.6
			z"/>
	</g>
	<g class="st0">
		<path class="st1" d="M351.9,121.7c4.4-0.2,9-0.6,13-1.3l0,5.3c-4.4,0.6-10,1-15,1.1c-0.8,1.7-1.7,3.4-2.6,4.7
			c1.2-0.6,3.7-0.9,5.2-0.9c2.8,0,5.1,1.2,6.1,3.5c2.4-1.1,4.3-1.9,6.2-2.7c1.8-0.8,3.4-1.5,5.1-2.4l2.3,5.3
			c-1.5,0.4-3.9,1.3-5.5,1.9c-2.1,0.8-4.7,1.8-7.5,3.1c0,2.6,0.1,6,0.2,8.1h-5.5c0.1-1.4,0.2-3.6,0.2-5.6c-3.5,2-5.3,3.8-5.3,6.1
			c0,2.5,2.2,3.2,6.7,3.2c3.9,0,9-0.5,13.1-1.3l-0.2,5.9c-3,0.4-8.7,0.8-13,0.8c-7.2,0-12.6-1.7-12.6-7.7c0-5.9,5.5-9.6,10.8-12.3
			c-0.7-1.2-1.9-1.6-3.2-1.6c-2.6,0-5.4,1.5-7.2,3.2c-1.4,1.4-2.7,3-4.3,5.1l-4.9-3.7c4.8-4.5,8.1-8.6,10.2-12.7c-0.2,0-0.4,0-0.6,0
			c-1.9,0-5.2-0.1-7.8-0.3v-5.4c2.3,0.4,5.8,0.6,8.1,0.6c0.7,0,1.5,0,2.2,0c0.5-1.8,0.8-3.6,0.9-5.3l6.1,0.5
			C352.9,118.3,352.5,119.8,351.9,121.7z"/>
	</g>
	<g class="st0">
		<path class="st2" d="M58.1,67.5v7.1H3.2v-7.1h23.5V55.2H10.2v-7h16.5V37.4H14.2c-1.8,3.4-3.7,6.5-5.7,8.8C7,45.1,3.8,42.9,2,42
			c4.8-5.1,8.7-13.5,10.8-21.8l7.5,1.6c-0.9,2.9-1.8,5.8-2.9,8.6h9.4v-11h7.6v11H55v7.1H34.4v10.7h18.2v7H34.4v12.3H58.1z"/>
		<path class="st2" d="M77.7,47.5c-2.1-2-6.6-4.6-10.2-6.2l3.9-5.4c3.6,1.3,8.2,3.6,10.6,5.6L77.7,47.5z M83.1,55.7
			c-2.3,6.6-5.2,13.8-8.1,19.9l-6.7-4c2.5-4.8,6.2-12.7,8.7-19.9L83.1,55.7z M81,31.4c-2.2-2.1-6.8-4.8-10.4-6.4l4.1-5.5
			c3.5,1.5,8.2,3.9,10.6,5.9L81,31.4z M93.4,38.7c0,10.9-0.9,27.2-7.3,37.8c-1.3-1.1-4.5-2.7-6.2-3.4c6.2-9.9,6.7-24.3,6.7-34.4
			V22.3h37.2v6.3H93.4V38.7z M124.5,68.3v6H91.1v-6h14.1v-5.9H94.7v-5.9h10.4v-4.5h6.7v4.5h10.9v5.9h-10.9v5.9H124.5z M105.2,45.1
			v-5.2h-8.8v-5.8h8.8v-4.3h6.7v4.3h9.5v5.8h-9.5v5.2h11.7V51H93.9v-5.9H105.2z"/>
	</g>
	<g class="st0">
		<path class="st2" d="M156.2,75l-3.5-5.5c1.7-0.2,3-0.5,4.3-0.7c5.9-1.4,10.5-5.6,10.5-12.3c0-6.3-3.5-11.1-9.7-12.1
			c-0.6,3.9-1.4,8.1-2.8,12.5c-2.8,9.3-6.7,15-11.7,15c-5.1,0-9.3-5.6-9.3-13.4c0-10.6,9.2-19.7,21.1-19.7
			c11.4,0,18.6,7.9,18.6,17.9C173.8,66.3,167.8,73.2,156.2,75z M143.6,64.7c1.9,0,3.7-2.9,5.6-9.1c1.1-3.4,1.9-7.3,2.4-11.1
			c-7.6,1.6-11.7,8.3-11.7,13.3C139.9,62.4,141.8,64.7,143.6,64.7z"/>
	</g>
	<g class="st0">
		<path class="st2" d="M25.4,105.8c-0.1,1.3-0.1,2.8-0.2,4.3c4-0.5,8.1-1.3,11.2-2.2l0.2,7.6c-3.5,0.8-7.7,1.4-11.7,1.9
			c-0.1,1.8-0.1,3.7-0.1,5.5c0,0.7,0,1.5,0,2.3c4.1-1,8.4-1.6,11.7-1.6c9.4,0,16.8,4.9,16.8,13.3c0,7.2-3.8,12.6-13.5,15.1
			c-2.8,0.6-5.5,0.8-8,1l-2.8-7.9c2.7,0,5.4-0.1,7.5-0.4c4.9-0.9,8.8-3.4,8.8-7.8c0-4.1-3.7-6.6-9-6.6c-3.8,0-7.7,0.6-11.5,1.7
			c0.1,4.8,0.2,9.6,0.2,11.7c0,7.6-2.7,9.6-6.7,9.6c-5.9,0-14.3-5.1-14.3-11.6c0-5.3,6.1-10.9,13.6-14.1c-0.1-1.5-0.1-2.9-0.1-4.3
			c0-1.7,0-3.4,0-5.1c-1.2,0.1-2.3,0.1-3.2,0.1c-4.1,0-6.5-0.1-8.5-0.3l-0.1-7.4c3.6,0.4,6.2,0.5,8.4,0.5c1.1,0,2.3-0.1,3.5-0.1
			c0.1-2.1,0.1-3.9,0.1-4.9c0-1.3-0.2-4.3-0.4-5.4h8.4C25.7,101.6,25.5,104.2,25.4,105.8z M16.2,144.8c1.1,0,2-0.5,2-2.6
			c0-1.5-0.1-4.3-0.2-7.6c-3.7,2-6.2,4.5-6.2,6.6C11.8,143.1,14.6,144.8,16.2,144.8z M58.3,115.7l-3.7,6.2
			c-2.9-2.5-10.9-7.1-14.7-8.9l3.4-5.9C48,109.3,55.1,113.3,58.3,115.7z"/>
		<path class="st2" d="M73.4,114.7c4.7-1.5,17.1-5.9,26-5.9c11,0,19.7,6.3,19.7,17.6c0,13.8-13.2,22.7-34.7,23.8l-3.5-8.1
			c16.5-0.4,29.5-5.2,29.5-15.8c0-5.7-4-10.1-11.3-10.1c-9,0-23.4,6.1-29.8,8.8l-3.5-8.5C68.2,116.2,71.2,115.3,73.4,114.7z"/>
		<path class="st2" d="M155.2,119.5c-0.3-0.7-0.5-1.5-0.8-2.1c-0.5-1.4-0.9-2.6-1.2-3.6c-5.7,0.3-12.9,0.2-20.6-0.5l-0.4-7
			c7.3,0.9,13.5,1.1,19.1,0.9c-0.6-2-1.2-3.9-2-6l8.2-0.9c0.3,2.2,0.7,4.3,1.1,6.4c4.2-0.5,8.1-1.4,12-2.6l1,7
			c-3.4,0.9-7.2,1.7-11.2,2.3c0.3,1,0.6,2,0.9,2.9c0.3,0.9,0.7,1.8,1,2.7c5-0.6,8.7-1.6,11.7-2.4l1.2,7.2c-2.8,0.7-6.1,1.4-9.8,1.9
			c1,2,2.1,3.8,3.2,5.4c0.8,1.2,1.6,2.1,2.7,3.1l-3.7,5.6c-3.4-0.7-10-1.5-14.5-2l0.6-5.8c2.6,0.2,5.9,0.5,7.7,0.7
			c-1.3-2.1-2.4-4.3-3.4-6.3c-7.5,0.5-17.3,0.5-26.5-0.1l-0.4-7.2C140.2,119.9,148.5,119.9,155.2,119.5z M140.2,139.9
			c0,4.5,4.3,6.3,12.3,6.3c5.8,0,11-0.5,15.3-1.3l-0.4,7.7c-4.3,0.7-9.8,1.2-14.8,1.2c-12.2,0-19.8-3.6-19.9-12.3
			c-0.1-3.9,1.2-6.9,2.6-9.8l7.6,1.5C141.4,135.2,140.2,137.3,140.2,139.9z"/>
	</g>
	<g class="st0">
		<path class="st2" d="M230.5,98.4c6.5,9.3,16.4,17.1,26.1,21c-1.8,1.9-3.4,4.3-4.7,6.5c-3.1-1.6-6.3-3.6-9.3-5.8v4.2h-30.4V120
			c-3,2.2-6.2,4.2-9.5,6c-1-1.8-3-4.4-4.6-5.9c10.5-5.1,20.3-14.3,24.8-21.7H230.5z M208.1,130.4h38.7v25h-7.4v-2.3h-24.1v2.3h-7.1
			V130.4z M239.5,117.9c-5.1-4-9.6-8.4-12.5-12.4c-2.9,4.1-7.1,8.4-12.1,12.4H239.5z M215.3,136.8v9.9h24.1v-9.9H215.3z"/>
	</g>
	<g class="st0">
		<path class="st2" d="M277.1,113.8c-0.1,4,0,8.5,0.4,12.9c0.9,8.8,2.7,14.8,6.5,14.8c2.9,0,5.3-7.1,6.5-12l6.1,7.4
			c-4,10.6-7.9,14.3-12.8,14.3c-6.7,0-12.5-6-14.2-22.4c-0.6-5.6-0.7-12.8-0.7-16.5c0-1.7-0.1-4.3-0.5-6.2l9.4,0.1
			C277.4,108.6,277.1,112.1,277.1,113.8z M319.5,139.4l-8,3.1c-1-9.8-4.2-24.6-10.9-32.2l7.7-2.5
			C314.2,114.8,318.8,130.1,319.5,139.4z"/>
	</g>
	<g class="st0">
		<path class="st2" d="M348.6,119.5c4.4-0.2,9-0.6,13-1.3l0,5.3c-4.4,0.6-10,1-15,1.1c-0.8,1.7-1.7,3.4-2.6,4.7
			c1.2-0.6,3.7-0.9,5.2-0.9c2.8,0,5.1,1.2,6.1,3.5c2.4-1.1,4.3-1.9,6.2-2.7c1.8-0.8,3.4-1.5,5.1-2.4l2.3,5.3
			c-1.5,0.4-3.9,1.3-5.5,1.9c-2.1,0.8-4.7,1.8-7.5,3.1c0,2.6,0.1,6,0.2,8.1h-5.5c0.1-1.4,0.2-3.6,0.2-5.6c-3.5,2-5.3,3.8-5.3,6.1
			c0,2.5,2.2,3.2,6.7,3.2c3.9,0,9-0.5,13.1-1.3l-0.2,5.9c-3,0.4-8.7,0.8-13,0.8c-7.2,0-12.6-1.7-12.6-7.7c0-5.9,5.5-9.6,10.8-12.3
			c-0.7-1.2-1.9-1.6-3.2-1.6c-2.6,0-5.4,1.5-7.2,3.2c-1.4,1.4-2.7,3-4.3,5.1l-4.9-3.7c4.8-4.5,8.1-8.6,10.2-12.7c-0.2,0-0.4,0-0.6,0
			c-1.9,0-5.2-0.1-7.8-0.3v-5.4c2.3,0.4,5.8,0.6,8.1,0.6c0.7,0,1.5,0,2.2,0c0.5-1.8,0.8-3.6,0.9-5.3l6.1,0.5
			C349.5,116.1,349.2,117.6,348.6,119.5z"/>
	</g>
</g>
</svg>
