<svg xmlns="http://www.w3.org/2000/svg" width="216.751" height="208.085" viewBox="0 0 216.751 208.085">
  <g id="グループ_329" data-name="グループ 329" transform="translate(-1671.441 -688.438)">
    <ellipse id="楕円形_6" data-name="楕円形 6" cx="93.355" cy="92.989" rx="93.355" ry="92.989" transform="translate(1676 696.492)" fill="#e9e374"/>
    <g id="パス_225" data-name="パス 225" transform="translate(1671.441 688.438)" fill="none">
      <path d="M92.989,0A92.989,92.989,0,1,1,0,92.989,92.989,92.989,0,0,1,92.989,0Z" stroke="none"/>
      <path d="M 92.98857879638672 7.000015258789062 C 45.57429504394531 7.000015258789062 6.999984741210938 45.57432556152344 6.999984741210938 92.98857116699219 C 6.999984741210938 140.4028167724609 45.57429504394531 178.9771270751953 92.98857879638672 178.9771270751953 C 140.40283203125 178.9771270751953 178.9771423339844 140.4028167724609 178.9771423339844 92.98857116699219 C 178.9771423339844 45.57432556152344 140.40283203125 7.000015258789062 92.98857879638672 7.000015258789062 M 92.98857879638672 1.52587890625e-05 C 144.3447570800781 1.52587890625e-05 185.9771423339844 41.63238525390625 185.9771423339844 92.98857116699219 C 185.9771423339844 144.3447265625 144.3447570800781 185.9771270751953 92.98857879638672 185.9771270751953 C 41.63238525390625 185.9771270751953 -1.52587890625e-05 144.3447265625 -1.52587890625e-05 92.98857116699219 C -1.52587890625e-05 41.63238525390625 41.63238525390625 1.52587890625e-05 92.98857879638672 1.52587890625e-05 Z" stroke="none" fill="#333"/>
    </g>
    <path id="パス_224" data-name="パス 224" d="M-31.271-14.555q.861,0,.861,1.055V-9a12.85,12.85,0,0,1-1.055,5.827Q-32.52-1.16-36.018.4a4.9,4.9,0,0,1-1.775.527q-.9,0-.9-.861,0-.58,1.257-.914A8.327,8.327,0,0,0-34.761-2.2a5.788,5.788,0,0,0,2.021-2.461,12.437,12.437,0,0,0,.606-4.518V-13.5Q-32.133-14.555-31.271-14.555ZM-39.832-5.4q0,1.037-.861,1.037t-.861-.932v-7.8q0-1.055.861-1.055t.861.949Zm27.141-7.682a1.494,1.494,0,0,1,1.1.448,1.6,1.6,0,0,1,.448,1.187A10.99,10.99,0,0,1-12.111-7.8a13.15,13.15,0,0,1-2.654,4.2A13.64,13.64,0,0,1-18.844-.668,9.515,9.515,0,0,1-22.289.475a.769.769,0,0,1-.879-.861.62.62,0,0,1,.325-.606,9.878,9.878,0,0,1,1.415-.483,12.549,12.549,0,0,0,5.036-2.918,12.043,12.043,0,0,0,3.3-5.66,3.256,3.256,0,0,0,.158-.773q0-.6-.738-.6H-23.8q-1.02,0-1.02-.826t1.02-.826ZM2.6-6.82,2.742-.492Q2.777.861.3.861-.756.861-.756-.07q0-.7.932-.721T1.16-.967a.709.709,0,0,0,.053-.352L1.125-5.643A15.926,15.926,0,0,1-2-2.048q-1.951,1.7-2.725,1.7a.676.676,0,0,1-.756-.773q0-.439.773-.879A13.676,13.676,0,0,0,.264-6.82H-4.693q-.914,0-.914-.738,0-.756.914-.756H1.072l-.035-1.9q-.018-.826.738-.826.738,0,.756.844l.053,1.881h2.6q.932,0,.932.756,0,.738-.932.738Zm21.955-1q1.037,0,1.037.844,0,.826-1.037.826H11.443q-1.037,0-1.037-.844,0-.826,1.037-.826ZM41.291-1.863q-3.5.686-10,1.283L29.936-.4l-.51.035q-.932,0-.932-.9,0-.844,1.371-.844l.7-.018.123-.264a87.612,87.612,0,0,0,3.955-10.881q.246-.844.932-.844.861,0,.861.791a12.9,12.9,0,0,1-.791,2.742q-1.283,3.656-3.182,7.928l-.158.387,5.361-.545,2.9-.4A32.263,32.263,0,0,0,38.18-7a1.552,1.552,0,0,1-.422-.809.645.645,0,0,1,.738-.721q.422,0,1.116.87a39.773,39.773,0,0,1,2.329,3.586A10.838,10.838,0,0,1,43.576-.686a.754.754,0,0,1-.861.844q-.58,0-.949-.967ZM-26.771,20.416H-34.33q-.914,0-.914-.773t.914-.773h1.705V15.811q-.123-2.039,1.881-1.916h3.973v-2.6h-4.852q-1.951,3.357-2.883,3.357-.773,0-.773-.844,0-.316.65-1.037a16.749,16.749,0,0,0,2.584-4.184q.316-.721.9-.721.826,0,.826.7A4.222,4.222,0,0,1-30.8,9.746h10.512q.932,0,.932.773t-.932.773h-4.9v2.6h4.342a.684.684,0,0,1,.773.773.684.684,0,0,1-.773.773h-4.342v3.428h5.484q.949,0,.949.773t-.949.773h-5.484v3.076q0,.949-.791.949t-.791-.949Zm0-1.547V15.441h-3.586a.641.641,0,0,0-.7.7v2.725Zm20.2,4.166h-4.887q-1.564.035-1.441-1.459V17.322q-.123-1.529,1.441-1.477H-6.68q1.688-.088,1.582,1.477v4.254Q-4.992,23.088-6.574,23.035Zm.07-3.041h-5.045v1.213a.533.533,0,0,0,.58.58h3.885a.533.533,0,0,0,.58-.58Zm0-1.2V17.656a.533.533,0,0,0-.58-.58h-3.885a.533.533,0,0,0-.58.58V18.8Zm-8.561-4.025v8.859q0,.809-.721.809-.7,0-.7-.809V10.045q-.105-1.652,1.564-1.564h3.691Q-9.7,8.41-9.809,9.9v3.428q.105,1.512-1.424,1.441Zm0-3.744h3.938v-.791a.517.517,0,0,0-.562-.562h-2.777a.541.541,0,0,0-.6.58Zm0,1.143V13.6h3.375a.517.517,0,0,0,.563-.562v-.861Zm12.357,2.6H-6.768q-1.529.07-1.424-1.441V9.9Q-8.3,8.41-6.768,8.48h3.92q1.688-.07,1.564,1.564V22.49q.105,2.021-1.9,1.9H-4.1q-.844,0-.844-.756t.844-.756h.65q.721-.018.738-.791Zm-4.166-2.6v.861a.517.517,0,0,0,.563.563h3.6V12.172Zm0-1.143h4.166v-.773a.541.541,0,0,0-.6-.58H-6.311a.517.517,0,0,0-.562.563ZM8.912,20.135q-1.424,3.428-6.926,4.2l-.545.053q-.721,0-.721-.756,0-.686.861-.756,4.869-.545,6.135-3.322H1.881q-.826,0-.826-.668,0-.65.826-.65H8.016l.141-1.477H3.885q-.7,0-.7-.633t.7-.633H8.191l.018-1.424H3.674q-.721,0-.721-.633t.721-.633H8.209v-.686q0-.914.721-.914.7,0,.7.914l-.018.686h4.711q.721,0,.721.633t-.721.633H9.6v.439l-.018.439v.545H14.1q.721,0,.721.633t-.721.633H9.527A10.11,10.11,0,0,1,9.4,18.236h6.732q.809,0,.809.65,0,.668-.809.668H9.914a7.1,7.1,0,0,0,2.76,2.118A10.577,10.577,0,0,0,16.488,22.7q.791.053.791.721a.692.692,0,0,1-.773.791,9.846,9.846,0,0,1-4.219-1.169A7.475,7.475,0,0,1,8.912,20.135ZM8.068,9.518V8.674q0-.791.826-.791.844,0,.844.791v.844h5.291a1.941,1.941,0,0,1,1.459.457,1.978,1.978,0,0,1,.457,1.371v1.3q0,.914-.773.914t-.773-.914v-1.09q0-.721-.7-.7H3.3q-.7-.018-.686.7v1.09q0,.914-.791.914-.773,0-.773-.914v-1.23a1.978,1.978,0,0,1,.457-1.441,1.941,1.941,0,0,1,1.459-.457Zm15.8,6.908-.141.018-1.125.123V23.7q0,.738-.65.738T21.3,23.7v-7l-.58.07-1.318.123a.6.6,0,0,1-.686-.668q0-.562,1.3-.6l.105-.018,1.213-1.793.035-.035-.07-.053a14.452,14.452,0,0,0-2-1.635q-.457-.334-.457-.65a.559.559,0,0,1,.633-.633,1.347,1.347,0,0,1,.633.334,18.561,18.561,0,0,0,1.213-2.5q.281-.738.791-.738.686,0,.686.65A11.886,11.886,0,0,1,20.988,11.8l1.055.9,1.125-2a.806.806,0,0,1,.686-.492q.7,0,.7.633a7.037,7.037,0,0,1-1.143,2.013q-1.143,1.679-1.969,2.716l2.127-.105-.3-.932q0-.51.545-.51.4,0,.747.835t.492,1.274a2.377,2.377,0,0,1,.149.58q0,.563-.633.563Q24.152,17.27,23.871,16.426Zm6.68-6.012v.949h3.059q.6,0,.6.527t-.6.527H30.551v1.02h4.113q.615,0,.615.545,0,.527-.615.527H25.33q-.615,0-.615-.545,0-.527.615-.527h3.832v-1.02H26.191q-.58,0-.58-.527t.58-.527h2.971v-.949H25.594q-.633,0-.633-.545,0-.527.633-.527h3.568V8.727q0-.844.686-.844.7,0,.7.844v.615h3.885q.633,0,.633.545,0,.527-.633.527Zm2.32,4.887a1.2,1.2,0,0,1,1.354,1.371v3.867a1.2,1.2,0,0,1-1.354,1.371h-5.66a1.189,1.189,0,0,1-1.354-1.336V16.637A1.189,1.189,0,0,1,27.211,15.3Zm-5.7,4.623v.527a.437.437,0,0,0,.475.492h4.764a.437.437,0,0,0,.475-.492v-.527Zm0-.914h5.713v-.932H27.176Zm0-1.846h5.713v-.4a.437.437,0,0,0-.475-.492H27.65a.429.429,0,0,0-.475.475Zm-7.154.58a.513.513,0,0,1,.58.58A15.129,15.129,0,0,1,20.285,21q-.316,1.67-.932,1.67-.633,0-.633-.6a1.862,1.862,0,0,1,.176-.65,8.153,8.153,0,0,0,.545-2.936Q19.459,17.744,20.021,17.744Zm3.885-.053a.47.47,0,0,1,.466.29,7.249,7.249,0,0,1,.325,1.292L25.014,21l.088.7q0,.545-.615.545-.545,0-.659-1.1t-.281-1.986q-.167-.888-.167-.958A.459.459,0,0,1,23.906,17.691Zm7.436,4.395a1.2,1.2,0,0,1,.439.123,13.935,13.935,0,0,0,2.742.826q.756.158.756.633a.614.614,0,0,1-.7.686,10.008,10.008,0,0,1-2.153-.624q-1.749-.624-1.749-1.046Q30.674,22.086,31.342,22.086Zm-3.023-.018a.567.567,0,0,1,.633.65q0,.457-1.819,1.046a9.932,9.932,0,0,1-2.54.589.552.552,0,0,1-.615-.633.577.577,0,0,1,.475-.615l2-.422,1.758-.6Z" transform="translate(1764 746)" fill="#333"/>
    <path id="パス_223" data-name="パス 223" d="M4.336-12.334,6.3-14.971q-2.051-1.67-4.014-2.988-.82-.557-.82-1.113a.958.958,0,0,1,1.084-1.084,2.185,2.185,0,0,1,1.025.439l.381.293A33.1,33.1,0,0,0,6.5-24.258a1.306,1.306,0,0,1,1.2-.937,1.075,1.075,0,0,1,1.2,1.23q0,1.172-3.4,5.566l.176.117,1.875,1.436.029-.088,2.139-3.4q.7-1.289,1.436-1.289,1.172,0,1.172,1.113a12.147,12.147,0,0,1-1.9,3.179q-1.9,2.71-3.486,4.614l-.234.234h.352l3.779-.293-.293-.791a2.508,2.508,0,0,1-.264-.791.79.79,0,0,1,.908-.879q.645,0,1.172,1.2t.967,2.314a5.846,5.846,0,0,1,.439,1.377.919.919,0,0,1-1.055,1.025q-.82,0-1.113-1.055l-.176-.645-2.783.352V1Q8.643,2.4,7.5,2.4,6.387,2.4,6.387,1V-10.43l-1.2.117-2.051.234-.791.059A1.01,1.01,0,0,1,1.2-11.162q0-1,1.113-1.084l1.875-.088ZM18.164-19.8h6.563q3.135,0,3.135,2.578v.5l-.029,1.113q-.117,5.947-.425,9.741a28.07,28.07,0,0,1-.776,5.3A3.175,3.175,0,0,1,24.9,1.509a12.787,12.787,0,0,1-4.658.571q-1.7,0-1.7-1.406Q18.545-.7,20.156-.7h.41l1.025.029q2.49,0,2.842-2.139l.293-2.9.41-8.145.088-2.285a1.036,1.036,0,0,0-1.172-1.172H17.109l-.029.088q-1.875,3.984-2.959,3.984a1.127,1.127,0,0,1-1.26-1.289,2.485,2.485,0,0,1,.5-1.113,23.392,23.392,0,0,0,3.164-7.441q.527-2.109,1.553-2.109a1.191,1.191,0,0,1,1.348,1.348A17.153,17.153,0,0,1,18.164-19.8ZM17.4-12.51q.791,0,1.611,1.289,2.08,3.311,2.08,4.512,0,1.289-1.377,1.289-.908,0-1.523-1.465a24.58,24.58,0,0,0-1.67-3.428,2.4,2.4,0,0,1-.381-.967A1.1,1.1,0,0,1,17.4-12.51ZM3.691-8.877q1,0,1,1.055a17.832,17.832,0,0,1-1.26,6.416q-.381,1-1.143,1Q1.2-.41,1.2-1.582a3.149,3.149,0,0,1,.293-.967A12.988,12.988,0,0,0,2.607-7.588Q2.637-8.877,3.691-8.877Zm7.705.088q.762,0,1.084,1.025a24.293,24.293,0,0,1,1.26,5.508.958.958,0,0,1-1.084,1.084q-1.055,0-1.26-1.538t-.425-2.754a14.2,14.2,0,0,0-.425-1.831l-.117-.557A.842.842,0,0,1,11.4-8.789ZM46.455-19.873Q53-17.676,53-10.6a10.77,10.77,0,0,1-2.856,7.739q-2.856,3-8.032,3a9.884,9.884,0,0,1-7.349-2.783A8.25,8.25,0,0,1,32-8.447q0-2.393,2.49-2.393Q36.2-10.84,37.3-7.2a4.68,4.68,0,0,0,4.907,3.638A5.485,5.485,0,0,0,46.65-5.64a7.983,7.983,0,0,0,1.709-5.249q0-4.98-3.711-6.445a14.143,14.143,0,0,0-5.078-.635q-1.855,0-1.855-2.051,0-2,1.9-2l2.539.1q5.664,0,5.664-6.494,0-6.006-5.029-6.006a3.952,3.952,0,0,0-2.979.977,13.568,13.568,0,0,0-2.1,4.395,2.129,2.129,0,0,1-2.2,1.563,1.878,1.878,0,0,1-2.148-2.1,8.412,8.412,0,0,1,2.539-5.835,9.1,9.1,0,0,1,6.982-2.71,9.149,9.149,0,0,1,7.056,2.71,9.369,9.369,0,0,1,2.515,6.616q0,6.494-5.518,8.74ZM67.7-38.135q5.762,0,7.959,5.078t2.2,14.16q0,10.156-2.49,14.6A8.372,8.372,0,0,1,67.5.146a8.356,8.356,0,0,1-7.861-4.492q-2.49-4.492-2.49-14.4,0-9.717,2.319-14.551T67.7-38.135ZM67.4-34.18q-5.518,0-5.518,15.186T67.5-3.809q5.615,0,5.615-15.283Q73.115-34.18,67.4-34.18ZM92.7-38.135q5.762,0,7.959,5.078t2.2,14.16q0,10.156-2.49,14.6A8.372,8.372,0,0,1,92.5.146a8.356,8.356,0,0,1-7.861-4.492q-2.49-4.492-2.49-14.4,0-9.717,2.319-14.551T92.7-38.135ZM92.4-34.18q-5.518,0-5.518,15.186T92.5-3.809q5.615,0,5.615-15.283Q98.115-34.18,92.4-34.18Zm20.01,15.869V.908q0,1.494-1.2,1.494T110.01.908V-13.184q-2.021,3.75-2.754,3.75-1.055,0-1.055-1.26a2.259,2.259,0,0,1,.381-1.084A46.576,46.576,0,0,0,111.65-23.7q.381-1.494,1.494-1.494,1.377,0,1.377,1.055Q114.521-23.145,112.412-18.311Zm6.387-.762h4.277v-4.8a1.153,1.153,0,0,1,1.289-1.318,1.153,1.153,0,0,1,1.289,1.318v4.8h5.859q1.523,0,1.523,1.26,0,1.23-1.523,1.23h-5.859V-9.99h6.621q1.553,0,1.553,1.26,0,1.23-1.553,1.23h-6.621V.82q0,1.582-1.289,1.582T123.076.82V-7.5h-7.793q-1.553,0-1.553-1.26,0-1.23,1.553-1.23h7.793v-6.592h-5.1l-.029.088a40.093,40.093,0,0,1-1.787,4.014,1.207,1.207,0,0,1-1.055.7,1.306,1.306,0,0,1-.908-.381,1.069,1.069,0,0,1-.41-.762,2.79,2.79,0,0,1,.41-1.2,29.031,29.031,0,0,0,2.754-7.529q.322-1.465,1.348-1.465,1.348,0,1.348,1.055a18.961,18.961,0,0,1-.732,2.578Z" transform="translate(1701.5 821.372)" fill="#333"/>
    <g id="シンプルな家のフリーアイコン素材_6" data-name="シンプルな家のフリーアイコン素材 6" transform="matrix(0.996, 0.087, -0.087, 0.996, 1823.082, 832.744)">
      <path id="パス_72" data-name="パス 72" d="M65.342,32.758l.017-.012L52.8,20.162V6.186h-7v4.088l-.014,2.863L32.7.028,32.69.015h0L32.676,0,5.166,27.569.012,32.729l0,0L0,32.746l6.486,4.406L6.641,37l.1-.083V58.3H58.619V45.743l.014-8.842.25.25,5.444-3.7,1.018-.688ZM32.676,10.874l21.537,21.6V53.9H28.781V32.746H18.814V53.9H11.147V32.473L32.655,10.9Z" transform="translate(0 0)" fill="#333"/>
      <path id="パス_73" data-name="パス 73" d="M0,11.567v.02H10.319V0H0V11.567ZM2.644,8.944v-6.3H7.676v6.3Z" transform="translate(36.509 32.746)" fill="#333"/>
    </g>
  </g>
</svg>
