<svg xmlns="http://www.w3.org/2000/svg" width="209" height="57" viewBox="0 0 209 57">
  <g id="グループ_470" data-name="グループ 470" transform="translate(-440 -35)">
    <g id="グループ_469" data-name="グループ 469" transform="translate(440 35)">
      <path id="パス_170" data-name="パス 170" d="M169.868,4.152l2.021-.532a1.91,1.91,0,0,0,1.362-1.361l.532-2.021a.319.319,0,0,1,.616,0l.532,2.021a1.91,1.91,0,0,0,1.362,1.361l2.021.532a.319.319,0,0,1,0,.616l-2.021.532a1.91,1.91,0,0,0-1.362,1.361L174.4,8.682a.319.319,0,0,1-.616,0l-.532-2.021A1.91,1.91,0,0,0,171.888,5.3l-2.021-.532a.319.319,0,0,1,0-.616Z" transform="translate(-169.63 3.687)" fill="#69aa38"/>
      <path id="パス_171" data-name="パス 171" d="M8.678,312.643l2.266-.6a2.139,2.139,0,0,0,1.526-1.523l.6-2.262a.357.357,0,0,1,.69,0l.6,2.262a2.14,2.14,0,0,0,1.527,1.523l2.266.6a.356.356,0,0,1,0,.69l-2.266.6a2.14,2.14,0,0,0-1.527,1.523l-.6,2.262a.357.357,0,0,1-.69,0l-.6-2.262a2.139,2.139,0,0,0-1.526-1.523l-2.266-.6a.356.356,0,0,1,0-.69Z" transform="translate(43.607 -276.427)" fill="#69aa38"/>
      <text id="新築" transform="translate(30.884 55.581)" fill="#69aa38" font-size="12" font-family="MotoyaLMaru-W3-90ms-RKSJ-H, MotoyaLMaru"><tspan x="-12" y="0">新築</tspan></text>
      <g id="家の線画イラスト_1_" data-name="家の線画イラスト (1)" transform="translate(9)">
        <path id="パス_177" data-name="パス 177" d="M37.139,41.1,31.2,35.066l-4.715-4.783-4.529-4.617L0,47.951l3.252,3.3,2.917-2.96V65.783H37.726V48.289l2.917,2.963,3.252-3.3ZM34.99,63H25.685V52.628H18.21V63H8.9V45.515L21.955,32.269,34.99,45.51Z" transform="translate(0 -25.666)" fill="#69aa38"/>
      </g>
    </g>
    <text id="リフォーム" transform="translate(551 90.428)" fill="#69aa38" font-size="12" font-family="MotoyaLMaru-W3-90ms-RKSJ-H, MotoyaLMaru" letter-spacing="-0.05em"><tspan x="-28.8" y="0">リフォーム</tspan></text>
    <g id="スパナーのフリーアイコン" transform="translate(532 36.434)">
      <path id="パス_176" data-name="パス 176" d="M43.184,7.443a3.808,3.808,0,0,0-.314-1A.494.494,0,0,0,42,6.309l-.49.686-2.77,3.892c-.535.747-1.591.465-2.44.3l-2.7-.549a.987.987,0,0,1-.664-.482l-1.3-2.305c-.461-.753-1.036-1.659-.5-2.409L33.967,1.46l.466-.651a.494.494,0,0,0-.409-.781A4.3,4.3,0,0,0,32.88.043a9.29,9.29,0,0,0-8.1,9c-.057,2.456.789,3.917-1.922,6.629C21.067,17.455,6.1,30.632,6.1,30.632a5.186,5.186,0,0,0,7.334,7.334S26.982,22.631,28.4,21.214c2.527-2.526,4.207-2.572,6.926-2.744a8.353,8.353,0,0,0,4.868-2.218A9.287,9.287,0,0,0,43.184,7.443ZM8.088,35.98a2.485,2.485,0,1,1,3.514,0A2.485,2.485,0,0,1,8.088,35.98Z" transform="translate(-4.583 0.001)" fill="#69aa38"/>
    </g>
    <text id="店舗改装" transform="translate(625 91)" fill="#69aa38" font-size="12" font-family="MotoyaLMaru-W3-90ms-RKSJ-H, MotoyaLMaru"><tspan x="-24" y="0">店舗改装</tspan></text>
    <g id="ショップアイコン4" transform="translate(603 35.345)">
      <path id="パス_172" data-name="パス 172" d="M112.064,38.028a3.307,3.307,0,0,0,3.306-3.306l1.207-12.65h-5.289l-2.53,12.65A3.307,3.307,0,0,0,112.064,38.028Z" transform="translate(-99.415 -22.072)" fill="#69aa38"/>
      <path id="パス_173" data-name="パス 173" d="M220.825,38.028a3.306,3.306,0,0,0,3.306-3.306l-.661-12.65h-5.29l-.661,12.65A3.306,3.306,0,0,0,220.825,38.028Z" transform="translate(-198.832 -22.072)" fill="#69aa38"/>
      <path id="パス_174" data-name="パス 174" d="M316.739,38.027a3.306,3.306,0,0,0,3.306-3.306l-2.53-12.65h-5.289l1.207,12.65A3.307,3.307,0,0,0,316.739,38.027Z" transform="translate(-285.403 -22.071)" fill="#69aa38"/>
      <path id="パス_175" data-name="パス 175" d="M39.587,22.071H34.3l3.076,12.65a3.3,3.3,0,0,0,2.5,3.195V59.5H34.889v-14.6H22.321V59.5H4.115V37.915a3.3,3.3,0,0,0,2.5-3.195l3.076-12.65H4.4L0,34.721a3.292,3.292,0,0,0,1.349,2.651V62.264H42.638V37.372a3.294,3.294,0,0,0,1.348-2.651ZM32.815,59.5H24.4V46.97h8.42Z" transform="translate(0 -22.071)" fill="#69aa38"/>
      <rect id="長方形_198" data-name="長方形 198" width="7.352" height="7.352" transform="translate(9.399 21.844)" fill="#69aa38"/>
    </g>
  </g>
</svg>
