<svg id="logo02_2" xmlns="http://www.w3.org/2000/svg" width="250" height="57" viewBox="0 0 250 57">
  <path id="パス_6" data-name="パス 6" d="M191.544,49.847c0,.184,0,.7-.572.7s-.563-.507-.563-.7V45.863c-.387.839-1.227,2.176-1.54,2.176a.249.249,0,0,1-.24-.258.406.406,0,0,1,.092-.24,9.914,9.914,0,0,0,1.6-4.279h-1.18c-.111,0-.314,0-.314-.258s.2-.24.314-.24h1.263V41.022c0-.175,0-.692.563-.692s.572.489.572.692v1.771h.922c.111,0,.3,0,.3.24s-.2.258-.3.258h-.848a7.119,7.119,0,0,0,.858,2.453,9.781,9.781,0,0,1,.507.922.267.267,0,0,1-.249.267c-.258,0-.876-.922-1.144-1.383Zm3.882-2.933a7.506,7.506,0,0,1-2.9,2.96.258.258,0,0,1-.24-.258.378.378,0,0,1,.157-.249,8.576,8.576,0,0,0,2.518-3.763h-1.844c-.092,0-.314,0-.314-.258s.221-.249.314-.249h2.305V43.032H194.1c-.461.71-1.051,1.356-1.245,1.356a.277.277,0,0,1-.258-.24.443.443,0,0,1,.092-.212,5.957,5.957,0,0,0,.922-2.361c.074-.415.157-.646.609-.646a.562.562,0,0,1,.618.507,3.19,3.19,0,0,1-.406,1.079h1V41.068c0-.4.1-.738.581-.738s.563.443.563.738v1.448h1.844a.277.277,0,0,1,.3.258.267.267,0,0,1-.3.258H196.57V45.1h2.176c.1,0,.314,0,.314.249s-.2.258-.314.258h-1.771a8.419,8.419,0,0,0,2.057,3.449c.157.166.166.212.166.267a.24.24,0,0,1-.249.249A6.354,6.354,0,0,1,196.57,46.9V49.81c0,.378-.092.738-.581.738s-.563-.424-.563-.738Z" transform="translate(-40.203 -16.497)" fill="#66a937"/>
  <path id="パス_7" data-name="パス 7" d="M204.89,48.728c.35-.083,2.149-.59,2.232-.59a.24.24,0,0,1,.249.249c0,.166-.083.2-.756.47a36.215,36.215,0,0,1-4.463,1.512.507.507,0,0,1-.461-.544.461.461,0,0,1,.406-.47l1.6-.332V45.4H202.28c-.111,0-.314,0-.314-.24s.212-.258.314-.258h4.049c.111,0,.3,0,.3.258s-.194.24-.3.24H204.89Zm6.732-6.105c.1,0,.314,0,.314.258s-.212.258-.314.258H208.2a12.726,12.726,0,0,0,1.3,5.34c.111.175.5.839.867.839.231,0,.36-.2.516-.738s.221-.747.563-.747a.581.581,0,0,1,.609.526,3.246,3.246,0,0,1-.581,1.549,1.227,1.227,0,0,1-1.088.673c-.563,0-2.831-.443-3.394-7.442H202.05c-.129,0-.314-.046-.314-.258s.2-.258.314-.258h4.906c0-.48-.074-1.116-.074-1.6,0-.2,0-.729.636-.729s.627.489.627.7v1.632Zm-1.217-.277c-.3,0-.36-.129-.581-.516a6.309,6.309,0,0,0-.673-.922.35.35,0,0,1-.111-.24.249.249,0,0,1,.24-.249,3.237,3.237,0,0,1,.775.369c.987.553,1.005.784,1.005.922A.664.664,0,0,1,210.4,42.347Z" transform="translate(-40.938 -16.494)" fill="#66a937"/>
  <path id="パス_8" data-name="パス 8" d="M224.657,44.635a10.735,10.735,0,0,1-4.279-2.536c-.157-.157-.415-.433-.535-.581s-.065-.065-.129-.065a.291.291,0,0,0-.212.148,11,11,0,0,1-4.712,3.034.267.267,0,0,1-.24-.267c0-.148.12-.212.258-.277a10.845,10.845,0,0,0,3.846-3.145c.433-.59.738-.636,1.088-.636.59,0,.729.184,1.19.8a9.1,9.1,0,0,0,3.689,2.979c.12.055.267.12.267.286a.249.249,0,0,1-.231.258Zm-9.434,1.844c-.148,0-.387,0-.387-.249s.231-.258.387-.258h8.964c.148,0,.378,0,.378.258s-.231.249-.378.249h-4.611a23.181,23.181,0,0,1-2.075,2.859c1.42-.055,2.822-.157,4.519-.277a11.622,11.622,0,0,0-1.042-1.485.462.462,0,0,1-.148-.267.267.267,0,0,1,.258-.258,6.705,6.705,0,0,1,1.448,1.1c.563.526,1.282,1.2,1.282,1.6a.7.7,0,0,1-.719.664c-.387,0-.433-.129-.83-.922-2.674.415-6.336.839-6.455.839a.433.433,0,0,1-.424-.461.48.48,0,0,1,.387-.48,6.691,6.691,0,0,0,.922-.046,26.423,26.423,0,0,0,1.365-2.868Zm6.88-2.693c.138,0,.369,0,.369.249s-.231.258-.369.258h-4.74c-.138,0-.369,0-.369-.258s.231-.249.369-.249Z" transform="translate(-41.66 -16.495)" fill="#66a937"/>
  <path id="パス_9" data-name="パス 9" d="M231.019,42.645c.341,0,.692.129.692.535a4.611,4.611,0,0,1-.876,1.688,5.754,5.754,0,0,0,1.466,1.614c.111.083.184.148.184.267a.249.249,0,0,1-.24.258,5.026,5.026,0,0,1-1.623-1.088v3.929c0,.277,0,.7-.563.7s-.572-.433-.572-.7V46.306a6.843,6.843,0,0,1-1.789,1.236.258.258,0,0,1-.249-.258.332.332,0,0,1,.184-.277,7.147,7.147,0,0,0,2.767-3.689c0-.166-.129-.166-.249-.166h-2.195c-.148,0-.378,0-.378-.258s.231-.249.378-.249h1.559v-1.6c0-.277,0-.71.572-.71s.572.433.572.71v1.6Zm3.108-1.6c0-.277,0-.719.572-.719s.59.433.59.719v2.767h1.844c.1,0,.35,0,.35.258s-.249.258-.35.258h-1.844v5.349h2.066c.111,0,.36,0,.36.258s-.258.249-.36.249h-5.708c-.111,0-.36,0-.36-.249s.249-.258.36-.258H234.1V44.332h-1.734c-.1,0-.36,0-.36-.258s.249-.258.36-.258H234.1Z" transform="translate(-42.385 -16.497)" fill="#66a937"/>
  <path id="パス_10" data-name="パス 10" d="M267.651,52.769c.286,0,.858.092.858.71s-.6.7-.858.7H247.077c-.286,0-.867-.074-.867-.7s.581-.71.867-.71Zm-1.964-17.2c.286,0,.858.074.858.7a.747.747,0,0,1-.858.719H249.023c-.3,0-.867-.074-.867-.719s.6-.7.867-.7Zm-1.134,8.3c.3,0,.867.065.867.692s-.6.719-.867.719H250.222c-.3,0-.867-.092-.867-.719s.6-.692.867-.692Z" transform="translate(-42.588 -16.125)" fill="#66a937"/>
  <path id="パス_11" data-name="パス 11" d="M275.541,36.455a1.522,1.522,0,0,1,1.725-1.586A50.813,50.813,0,0,0,287.687,33.7a14.352,14.352,0,0,1,1.632-.387,1.614,1.614,0,0,1,1.531,1.439.922.922,0,0,1-.858.922,67.73,67.73,0,0,1-8.032.452c-.267,0-2.877,0-2.979.074a.332.332,0,0,0-.166.341v2.25H292.3c.286,0,.812.092.812.673s-.544.673-.812.673h-3.265v5.293h4.749c.286,0,.821.1.821.673s-.553.673-.821.673h-8.77v7.313h3.135c.553,0,.7-.24.7-.692V49.421a1.476,1.476,0,0,1,1.6-1.743,1.5,1.5,0,0,1,1.706,1.743v3.744c0,1.273-.655,2.306-2.5,2.306H277.1c-1.844,0-2.5-1.014-2.5-2.306V49.421c0-.526,0-1.743,1.614-1.743s1.651,1.171,1.651,1.743v4.012c0,.452.148.692.692.692h3.1V46.857h-8.724c-.286,0-.812-.092-.812-.673s.553-.673.812-.673h2.619Zm3.283,9.01h6.834V40.171h-6.834Z" transform="translate(-44.603 -15.944)" fill="#66a937"/>
  <path id="パス_12" data-name="パス 12" d="M166.8,71.084a3.486,3.486,0,0,1-2.564-1.1L119.5,22.689,103.826,39.653c-1.3,1.413-6.455-3.245-5.174-4.658L116.931,15.25a3.532,3.532,0,0,1,2.564-1.13,3.449,3.449,0,0,1,2.582,1.112L169.4,65.278a3.425,3.425,0,0,1,.643,3.734,3.5,3.5,0,0,1-3.207,2.073Z" transform="translate(-34.629 -14.12)" fill="#69aa38"/>
  <path id="パス_13" data-name="パス 13" d="M91.508,21.97a3.386,3.386,0,0,0-2.582-1.111,3.5,3.5,0,0,0-2.564,1.129L75.3,33.932,71.082,29.38a3.526,3.526,0,0,0-5.174,0L32.294,65.865a3.426,3.426,0,0,0,.244,4.884,3.535,3.535,0,0,0,4.948-.241L68.555,36.827l32.277,34.7,37.017.091Z" transform="translate(-31.387 -14.644)" fill="#69aa38"/>
</svg>
