<svg xmlns="http://www.w3.org/2000/svg" width="68" height="55" viewBox="0 0 68 55">
  <g id="メールフリーアイコン_5" data-name="メールフリーアイコン 5" transform="translate(0 -60.131)">
    <path id="パス_116" data-name="パス 116" d="M64.413,60.131H3.586A3.694,3.694,0,0,0,0,63.923V111.34a3.693,3.693,0,0,0,3.586,3.791H64.413A3.693,3.693,0,0,0,68,111.34V63.923A3.694,3.694,0,0,0,64.413,60.131ZM6.182,106.921q9.405-7.975,18.808-15.953L31.548,96.5a3.437,3.437,0,0,0,4.482-.006l6.98-5.919q9.405,7.926,18.808,15.856V108.6H6.182ZM61.8,100.147q-6.213-5.24-12.429-10.476l-2.654-2.243q7.546-6.409,15.1-12.814V90.356Zm.013-33.48v1.667q-12.9,10.941-25.8,21.881a3.437,3.437,0,0,1-4.481.007Q18.861,79.534,6.182,68.847V66.666H61.818ZM21.269,87.842q-4.647,3.945-9.3,7.886l-5.79,4.894V75.113q6.187,5.221,12.377,10.438Z" transform="translate(0 0)" fill="#333"/>
  </g>
</svg>
