<svg xmlns="http://www.w3.org/2000/svg" width="100" height="100" viewBox="0 0 100 100">
  <g id="グループ_129" data-name="グループ 129" transform="translate(-1307 -2090)">
    <rect id="Placement_Area" data-name="Placement Area" width="100" height="100" rx="50" transform="translate(1307 2090)" fill="#fff"/>
    <g id="ピッケルアイコン" transform="translate(1329.001 2108.528)">
      <path id="パス_39" data-name="パス 39" d="M258.8,19.873l2.252-2.252a2.01,2.01,0,0,0,0-2.843L255.99,9.715a2.008,2.008,0,0,0-2.843,0l-.96.959a70.79,70.79,0,0,0-6.681-7.2l-7.713,7.713c2.476,2.475,4.737,4.832,6.812,7.071l-2.57,2.571,7.906,7.9,2.073-2.073c9.572,11.475,12.774,18.078,12.774,18.078l3.471-1.542A68.82,68.82,0,0,0,258.8,19.873Z" transform="translate(-211.373)" fill="#69aa38"/>
      <path id="パス_40" data-name="パス 40" d="M.678,214.719a2.319,2.319,0,0,0,0,3.28l2.89,2.891a2.32,2.32,0,0,0,3.28,0l29.02-29.02L29.7,185.7Z" transform="translate(0 -161.981)" fill="#69aa38"/>
    </g>
  </g>
</svg>
