<svg xmlns="http://www.w3.org/2000/svg" width="100" height="100" viewBox="0 0 100 100">
  <g id="グループ_85" data-name="グループ 85" transform="translate(-925 -2090)">
    <rect id="Placement_Area" data-name="Placement Area" width="100" height="100" rx="50" transform="translate(925 2090)" fill="#fff"/>
    <g id="シャワーのアイコン5" transform="translate(947 2056.855)">
      <path id="パス_15" data-name="パス 15" d="M495.061,233.777a1.245,1.245,0,1,0,.364.879A1.25,1.25,0,0,0,495.061,233.777Z" transform="translate(-428.605 -157.215)" fill="#69aa38"/>
      <path id="パス_16" data-name="パス 16" d="M4.241,270.731c-.4.532-.765,1.023-1.106,1.5-.3.417-.576.824-.837,1.236-.228.36-.442.725-.64,1.1a12.378,12.378,0,0,0-.873,2.084,13.754,13.754,0,0,0-.413,1.711,23.608,23.608,0,0,0-.3,2.887C.017,282.308,0,283.488,0,284.87v8.944H5.882V284.87c0-1.766.032-3.111.117-4.139a12.308,12.308,0,0,1,.269-1.845,6.509,6.509,0,0,1,.309-.97,7.16,7.16,0,0,1,.334-.7A13.885,13.885,0,0,1,7.7,275.96c.336-.485.748-1.042,1.24-1.7.43-.573.806-1.069,1.133-1.5L5.585,268.96C5.205,269.453,4.759,270.039,4.241,270.731Z" transform="translate(0 -188.124)" fill="#69aa38"/>
      <path id="パス_17" data-name="パス 17" d="M45.33,229.037l5.726,4.821,3.425-3.621-6.212-5.265Z" transform="translate(-39.414 -149.876)" fill="#69aa38"/>
      <path id="パス_18" data-name="パス 18" d="M315.055,147.848a1.245,1.245,0,1,0,.364.879A1.251,1.251,0,0,0,315.055,147.848Z" transform="translate(-272.09 -82.501)" fill="#69aa38"/>
      <path id="パス_19" data-name="パス 19" d="M448.641,214.3a1.244,1.244,0,1,0-.587-1.659A1.244,1.244,0,0,0,448.641,214.3Z" transform="translate(-389.474 -138.536)" fill="#69aa38"/>
      <path id="パス_20" data-name="パス 20" d="M403.639,192.812a1.244,1.244,0,1,0-.588-1.66A1.243,1.243,0,0,0,403.639,192.812Z" transform="translate(-350.344 -119.855)" fill="#69aa38"/>
      <path id="パス_21" data-name="パス 21" d="M358.642,171.33a1.244,1.244,0,1,0-.587-1.659A1.243,1.243,0,0,0,358.642,171.33Z" transform="translate(-311.22 -101.178)" fill="#69aa38"/>
      <path id="パス_22" data-name="パス 22" d="M292.912,175.283a1.242,1.242,0,1,0-.364.88A1.252,1.252,0,0,0,292.912,175.283Z" transform="translate(-252.521 -105.591)" fill="#69aa38"/>
      <path id="パス_23" data-name="パス 23" d="M332.1,204.077a1.244,1.244,0,1,0-1.735.292A1.244,1.244,0,0,0,332.1,204.077Z" transform="translate(-286.798 -130)" fill="#69aa38"/>
      <path id="パス_24" data-name="パス 24" d="M408.914,258.764a1.244,1.244,0,1,0,1.735-.292A1.243,1.243,0,0,0,408.914,258.764Z" transform="translate(-355.347 -178.804)" fill="#69aa38"/>
      <path id="パス_25" data-name="パス 25" d="M369.784,232.436a1.244,1.244,0,1,0-.292-1.736A1.244,1.244,0,0,0,369.784,232.436Z" transform="translate(-321.07 -154.403)" fill="#69aa38"/>
      <path id="パス_26" data-name="パス 26" d="M449.343,286.309a1.244,1.244,0,1,0,.879.364A1.254,1.254,0,0,0,449.343,286.309Z" transform="translate(-389.618 -203.209)" fill="#69aa38"/>
      <path id="パス_27" data-name="パス 27" d="M246.651,227.152a1.245,1.245,0,1,0,.88.365A1.253,1.253,0,0,0,246.651,227.152Z" transform="translate(-213.379 -151.772)" fill="#69aa38"/>
      <path id="パス_28" data-name="パス 28" d="M274.511,268.252a1.244,1.244,0,1,0,1.732.306A1.244,1.244,0,0,0,274.511,268.252Z" transform="translate(-238.223 -187.313)" fill="#69aa38"/>
      <path id="パス_29" data-name="パス 29" d="M303.08,309.119a1.244,1.244,0,1,0,1.733.306A1.245,1.245,0,0,0,303.08,309.119Z" transform="translate(-263.064 -222.847)" fill="#69aa38"/>
      <path id="パス_30" data-name="パス 30" d="M331.647,349.986a1.244,1.244,0,1,0,1.733.307A1.244,1.244,0,0,0,331.647,349.986Z" transform="translate(-287.902 -258.38)" fill="#69aa38"/>
      <path id="パス_31" data-name="パス 31" d="M360.931,390.637a1.244,1.244,0,1,0,.879.364A1.25,1.25,0,0,0,360.931,390.637Z" transform="translate(-312.745 -293.921)" fill="#69aa38"/>
      <path id="パス_32" data-name="パス 32" d="M270.044,202.719a1.243,1.243,0,1,0-.879.365A1.25,1.25,0,0,0,270.044,202.719Z" transform="translate(-232.955 -128.681)" fill="#69aa38"/>
      <path id="パス_33" data-name="パス 33" d="M336.584,269.53a1.244,1.244,0,1,0,1.759,0A1.244,1.244,0,0,0,336.584,269.53Z" transform="translate(-292.338 -188.304)" fill="#69aa38"/>
      <path id="パス_34" data-name="パス 34" d="M370.735,303.812a1.244,1.244,0,1,0,1.759,0A1.244,1.244,0,0,0,370.735,303.812Z" transform="translate(-322.033 -218.112)" fill="#69aa38"/>
      <path id="パス_35" data-name="パス 35" d="M304.19,237.006a1.244,1.244,0,1,0-1.759,0A1.244,1.244,0,0,0,304.19,237.006Z" transform="translate(-262.646 -158.492)" fill="#69aa38"/>
      <path id="パス_36" data-name="パス 36" d="M405.762,337.74a1.243,1.243,0,1,0,.879.364A1.252,1.252,0,0,0,405.762,337.74Z" transform="translate(-351.724 -247.928)" fill="#69aa38"/>
      <path id="パス_37" data-name="パス 37" d="M96.95,54.094l-.806-.683a3.421,3.421,0,0,0-4.851.434s-2.778,2.656-3.972,4.148C77.075,70.785,76.3,73.559,76.3,73.559l6.362,5.392,7.726-8.277L91.711,71.7l10.519-12.412Z" transform="translate(-66.344)" fill="#69aa38"/>
      <path id="パス_38" data-name="パス 38" d="M216.756,114.587l-1.028-1.012-10.38,12.248,1.109.858a1.71,1.71,0,0,0,2.34-.254l8.064-9.515A1.711,1.711,0,0,0,216.756,114.587Z" transform="translate(-178.548 -53.018)" fill="#69aa38"/>
    </g>
  </g>
</svg>
