<svg id="電話のアイコン素材_1" data-name="電話のアイコン素材 1" xmlns="http://www.w3.org/2000/svg" width="68" height="55" viewBox="0 0 68 55">
  <path id="パス_119" data-name="パス 119" d="M63.459,54.342C59.751,51.059,43.44,47.958,34,47.958S8.248,51.059,4.54,54.342C-.7,58.984.035,66.076.035,66.076l5.358,4.979,11.993-4.481c.87-.249-.084-6-.681-8-.286-.958,2.315-1.766,5.424-2.365,5.587-1.077,18.153-1.077,23.741,0,3.109.6,5.71,1.407,5.424,2.365-.6,2-1.551,7.751-.681,8l11.993,4.481,5.358-4.979S68.7,58.984,63.459,54.342Z" transform="translate(0.001 -47.958)" fill="#333"/>
  <path id="パス_120" data-name="パス 120" d="M107.1,154.539c0-.018-.007-.036-.011-.053a1.215,1.215,0,0,1-.036-.272V147.8h-2.2v-3.1h-4.579v3.1H92.312v-3.1H87.733v3.1h-2.2v6.417a1.23,1.23,0,0,1-.036.273c0,.017-.006.034-.01.052-.86,3.212-13.919,7.26-13.919,13.948V186.06h0v.021h49.452V168.487C121.019,161.8,107.961,157.751,107.1,154.539Zm-.415,20.361-5.017-3.488a6.075,6.075,0,0,0,1.093-3.478,6.471,6.471,0,1,0-6.468,6.251,6.576,6.576,0,0,0,4.015-1.356l3.613,4.856a12.878,12.878,0,0,1-7.629,2.475,12.234,12.234,0,1,1,12.649-12.227,11.874,11.874,0,0,1-2.174,6.842C106.739,174.818,106.714,174.86,106.685,174.9Z" transform="translate(-62.293 -131.08)" fill="#333"/>
</svg>
