<svg id="電話のアイコン素材_1" data-name="電話のアイコン素材 1" xmlns="http://www.w3.org/2000/svg" width="127.399" height="103.044" viewBox="0 0 127.399 103.044">
  <path id="パス_119" data-name="パス 119" d="M118.892,59.919C111.944,53.768,81.386,47.958,63.7,47.958S15.453,53.768,8.507,59.919C-1.315,68.615.066,81.9.066,81.9L10.1,91.232l22.468-8.4c1.63-.467-.158-11.249-1.275-14.988-.536-1.794,4.338-3.308,10.162-4.431,10.468-2.018,34.01-2.018,44.48,0,5.824,1.123,10.7,2.636,10.161,4.431-1.117,3.739-2.905,14.522-1.275,14.988l22.468,8.4L127.332,81.9S128.713,68.615,118.892,59.919Z" transform="translate(0.001 -47.958)" fill="#333"/>
  <path id="パス_120" data-name="パス 120" d="M138.138,163.136c-.009-.033-.013-.067-.021-.1a2.276,2.276,0,0,1-.067-.51V150.5h-4.124v-5.8h-8.578v5.8H110.434v-5.8h-8.579v5.8H97.731v12.023a2.308,2.308,0,0,1-.067.512c-.007.032-.011.065-.02.1-1.612,6.017-26.078,13.6-26.078,26.132V222.19h0v.039h92.649V189.267C164.216,176.739,139.752,169.154,138.138,163.136Zm-.778,38.146-9.4-6.535a11.383,11.383,0,0,0,2.048-6.515,12.124,12.124,0,1,0-12.117,11.712,12.319,12.319,0,0,0,7.523-2.541l6.77,9.1a24.127,24.127,0,0,1-14.292,4.638c-13.088,0-23.7-10.256-23.7-22.907s10.61-22.907,23.7-22.907,23.7,10.256,23.7,22.907a22.245,22.245,0,0,1-4.073,12.819C137.462,201.128,137.415,201.207,137.36,201.282Z" transform="translate(-54.192 -119.185)" fill="#333"/>
</svg>
